<svg xmlns="http://www.w3.org/2000/svg" width="33.952" height="34.756" viewBox="0 0 44.952 34.756">
  <g id="right-arrow-svgrepo-com" transform="translate(44.952 39.854) rotate(180)">
    <path id="Path_194" data-name="Path 194" d="M44.952,22.108A4.638,4.638,0,0,0,43.59,18.8L30.627,5.831a2.5,2.5,0,1,0-3.536,3.546l10.574,10.57H2.484A2.5,2.5,0,0,0,0,22.464v.028a2.5,2.5,0,0,0,2.484,2.523H37.666L27.094,35.579a2.5,2.5,0,1,0,3.538,3.54L43.59,26.149a4.633,4.633,0,0,0,1.362-3.309Z" fill="#6c63ff"/>
  </g>
</svg>
