<svg xmlns="http://www.w3.org/2000/svg" width="208.123" height="184.728" viewBox="0 0 208.123 184.728">
  <g id="revies" transform="translate(0)">
    <path id="Path_127" data-name="Path 127" d="M745.945,708.212H659.46a.364.364,0,0,1,0-.712h86.485a.364.364,0,0,1,0,.712Z" transform="translate(-538.109 -523.484)" fill="#3f3d56"/>
    <path id="Path_128" data-name="Path 128" d="M522.524,477.091H519l-1.676-16.831h5.2Z" transform="translate(-368.685 -296.44)" fill="#ffb8b8"/>
    <path id="Path_129" data-name="Path 129" d="M503.792,504.045h6.794v5.3H499.515C499.515,506.417,501.43,504.045,503.792,504.045Z" transform="translate(-355.991 -324.64)" fill="#2f2e41"/>
    <path id="Path_130" data-name="Path 130" d="M598.643,465.958l-3.2,1.813-7.17-14.447L593,450.648Z" transform="translate(-419.244 -290.249)" fill="#ffb8b8"/>
    <path id="Path_131" data-name="Path 131" d="M4.475-.311l7.073-.613L11.162,4.2-.365,5.2h0C-.152,2.369,2.015-.1,4.475-.311Z" transform="translate(169.546 179.825) rotate(-24.548)" fill="#2f2e41"/>
    <path id="Path_132" data-name="Path 132" d="M814.923,507.626a3.885,3.885,0,0,0,1.148-2.674,4.054,4.054,0,0,0-.918-2.807l4.141-11.639-5.26,1.1-3.126,10.883a4.258,4.258,0,0,0,.168,4.775,2.511,2.511,0,0,0,3.848.357Z" transform="translate(-645.783 -383.725)" fill="#ffb8b8"/>
    <path id="Path_133" data-name="Path 133" d="M752.082,569.931h-3.365a1.451,1.451,0,0,1-1.29-1.486l-3.559-60.707a1.829,1.829,0,0,1,.387-1.263,1.155,1.155,0,0,1,1.028-.448l21.186,2.56a1.506,1.506,0,0,1,1.167,1.564l.408,26.779a1.507,1.507,0,0,0,.067.425L776.1,563a1.957,1.957,0,0,1-.028,1.237,1.452,1.452,0,0,1-.731.843l-3.41,1.556a1.2,1.2,0,0,1-1.6-.77l-9.807-23.623a1.851,1.851,0,0,1-.116-.407l-1.675-10a1.072,1.072,0,0,0-1.03-.991,1.126,1.126,0,0,0-.954,1.1l-3.38,36.563a1.43,1.43,0,0,1-1.285,1.419Z" transform="translate(-598.467 -393.718)" fill="#2f2e41"/>
    <ellipse id="Ellipse_19" data-name="Ellipse 19" cx="7.057" cy="8.742" rx="7.057" ry="8.742" transform="translate(148.234 49.07)" fill="#ffb8b8"/>
    <path id="Path_134" data-name="Path 134" d="M748.551,430.529c.9.772,11.081,9.08,22.682,2.472-.15-1.6-1.6-17.718-.333-29.6a16.765,16.765,0,0,0-4.97-14.325,12.053,12.053,0,0,0-14.372-1.922h0q-.286.158-.575.33Z" transform="translate(-601.807 -316.157)" fill="#2f2e41"/>
    <path id="Path_135" data-name="Path 135" d="M815.828,451.112a1.193,1.193,0,0,1-.952-.52l-1.544-2.086a1.9,1.9,0,0,1-.287-1.536l3.536-14.824L811.2,418.152a3.618,3.618,0,0,1-.164-1.974,2.644,2.644,0,0,1,2.017-2.231,2.3,2.3,0,0,1,2.4,1.531l7.272,14.617a4.935,4.935,0,0,1,.2,3.819l-5.922,16.254a1.366,1.366,0,0,1-.974.922,1.065,1.065,0,0,1-.206.021Z" transform="translate(-646.291 -334.4)" fill="#2f2e41"/>
    <path id="Path_136" data-name="Path 136" d="M759.734,461.165h-2.819l4.921-28.689.284.046-1.095,27.122A1.453,1.453,0,0,1,759.734,461.165Z" transform="translate(-607.767 -346.349)" opacity="0.2"/>
    <path id="Path_137" data-name="Path 137" d="M744.978,500.781a4.194,4.194,0,0,0,.675-2.911,3.692,3.692,0,0,0-1.368-2.51l2.1-12.45-4.961,2.433-1.234,11.45a4.136,4.136,0,0,0,.964,4.628,2.53,2.53,0,0,0,3.824-.641Z" transform="translate(-595.62 -378.833)" fill="#ffb8b8"/>
    <path id="Path_138" data-name="Path 138" d="M745.986,433.572a1.082,1.082,0,0,1-.146-.01l-3.007-.414a1.538,1.538,0,0,1-1.149-1.658l1.244-37.3c.081-2.42,1.6-4.389,3.548-4.6s3.718,1.407,4.133,3.774l.8,4.567,0,.032-4.146,34.238A1.413,1.413,0,0,1,745.986,433.572Z" transform="translate(-596.912 -318.721)" fill="#2f2e41"/>
    <path id="Path_139" data-name="Path 139" d="M761.432,338.494c-.732.155-1.334-1.106-1.425-1.994a19.239,19.239,0,0,1,.2-2.619c.028-.882-.307-1.953-1.047-2.215-.775-.274-1.494.5-2.287.4-1.106-.129-1.661-1.732-1.795-3.028s-.239-2.832-1.2-3.571-2.135-.2-3.232-.178c-1.854.039-3.741-1.712-4.174-3.873a.975.975,0,0,0,1.2-.6,1.528,1.528,0,0,0-.32-1.558l2.1,1.275a1.491,1.491,0,0,1,.743-1.823,3.23,3.23,0,0,1,1.95-.024c3.29.633,7.1.321,9.283,3.429a16.65,16.65,0,0,1,2.586,8.9C763.848,333.669,761.432,338.494,761.432,338.494Z" transform="translate(-600.327 -272.974)" fill="#2f2e41"/>
    <path id="Path_140" data-name="Path 140" d="M318.853,354.584H243.286a2.293,2.293,0,0,1-2.011-2.491L237.827,193a2.3,2.3,0,0,1,2.011-2.5H315.4a2.293,2.293,0,0,1,2.011,2.492l.625,28.821-.574.019L316.842,193a1.642,1.642,0,0,0-1.437-1.789H239.838a1.638,1.638,0,0,0-1.437,1.78l3.448,159.091a1.642,1.642,0,0,0,1.437,1.789h75.567a1.638,1.638,0,0,0,1.437-1.78l-.671-30.956.574-.019.671,30.966A2.3,2.3,0,0,1,318.853,354.584Z" transform="translate(-237.827 -190.5)" fill="#ccc"/>
    <path id="Path_150" data-name="Path 150" d="M0,0,.579,0,.509,13.662l-.575,0Z" transform="matrix(1, -0.027, 0.027, 1, 80.561, 74.042)" fill="#ccc"/>
    <path id="Path_141" data-name="Path 141" d="M329.625,365.934h-62.6a1.956,1.956,0,0,1-1.715-2.125l-2.856-131.783a1.96,1.96,0,0,1,1.715-2.135h62.6a1.956,1.956,0,0,1,1.715,2.125L329,247.178l-.574.03-.518-15.177a1.61,1.61,0,0,0-.331-1.007,1.049,1.049,0,0,0-.81-.421h-62.6a1.3,1.3,0,0,0-1.141,1.413L265.888,363.8a1.607,1.607,0,0,0,.332,1,1.047,1.047,0,0,0,.809.418h62.6a1.3,1.3,0,0,0,1.141-1.413l-.37-17.3.574-.019.37,17.312a1.959,1.959,0,0,1-1.715,2.134Z" transform="translate(-255.38 -215.87)" fill="#ccc"/>
    <path id="Path_151" data-name="Path 151" d="M0,0,.579,0,.51,13.525l-.575,0Z" transform="translate(73.809 74.399) rotate(-1.516)" fill="#ccc"/>
    <path id="Path_142" data-name="Path 142" d="M364.626,320.923H291.358a2.288,2.288,0,0,1-2.011-2.471L288.2,279.991a2.293,2.293,0,0,1,2.011-2.491h73.268a2.288,2.288,0,0,1,2.011,2.471l1.149,38.461a2.293,2.293,0,0,1-2.011,2.492Zm-75.854-40.951,1.149,38.459a1.638,1.638,0,0,0,1.437,1.78h73.268a1.634,1.634,0,0,0,1.437-1.761l-1.149-38.459a1.638,1.638,0,0,0-1.437-1.78H290.208a1.634,1.634,0,0,0-1.437,1.761Z" transform="translate(-273.724 -246.534)" fill="#3f3d56"/>
    <path id="Path_143" data-name="Path 143" d="M412.626,479.923H339.358a2.288,2.288,0,0,1-2.011-2.471L336.2,438.991a2.293,2.293,0,0,1,2.011-2.491h73.268a2.288,2.288,0,0,1,2.011,2.471l1.149,38.461a2.293,2.293,0,0,1-2.011,2.492Zm-75.854-40.951,1.149,38.459a1.638,1.638,0,0,0,1.437,1.78h73.268a1.634,1.634,0,0,0,1.437-1.761l-1.149-38.459a1.638,1.638,0,0,0-1.437-1.78H338.208A1.634,1.634,0,0,0,336.772,438.973Z" transform="translate(-307.933 -348.941)" fill="#3f3d56"/>
    <path id="Path_144" data-name="Path 144" d="M403.065,460a2.367,2.367,0,0,0,0,4.627h37.352a2.367,2.367,0,0,0,0-4.627Z" transform="translate(-354.257 -364.077)" fill="#2f2e41"/>
    <path id="Path_145" data-name="Path 145" d="M403.065,491a2.367,2.367,0,0,0,0,4.627h37.352a2.367,2.367,0,0,0,0-4.627Z" transform="translate(-354.257 -384.043)" fill="#2f2e41"/>
    <path id="Path_146" data-name="Path 146" d="M403.065,522a2.367,2.367,0,0,0,0,4.627h37.352a2.367,2.367,0,0,0,0-4.627Z" transform="translate(-354.257 -404.009)" fill="#2f2e41"/>
    <path id="Path_147" data-name="Path 147" d="M355.065,301a2.367,2.367,0,0,0,0,4.627h37.352a2.367,2.367,0,0,0,0-4.627Z" transform="translate(-320.048 -261.67)" fill="#2f2e41"/>
    <path id="Path_148" data-name="Path 148" d="M355.065,332a2.367,2.367,0,0,0,0,4.627h37.352a2.367,2.367,0,0,0,0-4.627Z" transform="translate(-320.048 -281.636)" fill="#2f2e41"/>
    <path id="Path_149" data-name="Path 149" d="M355.065,363a2.367,2.367,0,0,0,0,4.627h37.352a2.367,2.367,0,0,0,0-4.627Z" transform="translate(-320.048 -301.602)" fill="#2f2e41"/>
    <ellipse id="Ellipse_20" data-name="Ellipse 20" cx="2.873" cy="3.559" rx="2.873" ry="3.559" transform="translate(37.459 3.559)" fill="#e6e6e6"/>
  </g>
</svg>
