<svg xmlns="http://www.w3.org/2000/svg" width="166.264" height="184.728" viewBox="0 0 166.264 184.728">
  <g id="growth" transform="translate(0 0)">
    <path id="Path_167" data-name="Path 167" d="M469.2,627.632c.6-8.2,3.6-16.274,8.211-18.941a63.228,63.228,0,0,0,0,26.13c.709,3.249,1.7,6.738,1.03,10.013a8.145,8.145,0,0,1-2.564,4.572,11.058,11.058,0,0,1-3.636,1.895l-.245.343C470.024,644.09,468.6,635.829,469.2,627.632Z" transform="translate(-409.666 -467.567)" fill="#f0f0f0"/>
    <path id="Path_168" data-name="Path 168" d="M490.222,608.453a45.854,45.854,0,0,0-4.771,18.308,23.619,23.619,0,0,0,.094,4.386,10.637,10.637,0,0,0,1.179,3.727,17.616,17.616,0,0,1,1.523,3.089,8.073,8.073,0,0,1,.142,4.016,15.35,15.35,0,0,1-1.671,4.225,15.056,15.056,0,0,0-1.856,4.7c-.039.225-.242.111-.2-.114.553-3.234,2.405-5.07,3.288-7.983a8.118,8.118,0,0,0,.2-4.371,13.99,13.99,0,0,0-1.511-3.186,10.961,10.961,0,0,1-1.233-3.571,21.722,21.722,0,0,1-.193-4.364,50.455,50.455,0,0,1,1.36-9.591,41.277,41.277,0,0,1,3.512-9.54c.092-.174.233.1.142.273Z" transform="translate(-422.432 -467.175)" fill="#fff"/>
    <path id="Path_169" data-name="Path 169" d="M479.438,649.705c-1.371-.564-2.3-2.728-2.192-5.112.011-.234.226-.216.215.018-.1,2.221.766,4.236,2.045,4.749.134.054.066.4-.067.346Z" transform="translate(-416.361 -492.322)" fill="#fff"/>
    <path id="Path_170" data-name="Path 170" d="M494.132,681.255a10.264,10.264,0,0,0,2.478-5.418c.039-.225.243-.111.2.114a10.649,10.649,0,0,1-2.586,5.629c-.119.12-.215-.206-.1-.325Z" transform="translate(-430.148 -513.997)" fill="#fff"/>
    <path id="Path_171" data-name="Path 171" d="M500.323,628.738a1.075,1.075,0,0,0,1.545-.133c.118-.122.214.2.1.325a1.2,1.2,0,0,1-1.709.154.237.237,0,0,1-.068-.23c.019-.1.079-.147.136-.116Z" transform="translate(-435.146 -481.343)" fill="#fff"/>
    <path id="Path_172" data-name="Path 172" d="M504.255,654.375c-.072.08-.145.16-.218.243a28.282,28.282,0,0,0-2.745,3.632c-.067.1-.134.206-.2.31a43.976,43.976,0,0,0-4.915,11.4c-.48,1.705-.882,3.47-1.2,5.279a35.708,35.708,0,0,1-1.688,7.31q-.135.323-.294.615h-7.946c-.018-.015-.036-.028-.054-.043l-.317.025c.013-.1.027-.193.04-.289.007-.055.016-.111.024-.166.005-.037.011-.074.014-.108,0-.012,0-.025.005-.034,0-.034.009-.065.013-.1q.12-.825.247-1.65a.008.008,0,0,1,0-.006,81.373,81.373,0,0,1,2.719-12.1c.036-.114.072-.23.112-.344a43.259,43.259,0,0,1,1.884-4.842q.581-1.249,1.235-2.394a19.651,19.651,0,0,1,3.858-4.9c2.85-2.55,6.149-3.527,9.195-1.97C504.1,654.292,504.177,654.332,504.255,654.375Z" transform="translate(-422.451 -498.61)" fill="#f0f0f0"/>
    <path id="Path_173" data-name="Path 173" d="M504.4,656.069c-3.957,1.332-7.565,4.743-10.313,9.749a16.488,16.488,0,0,0-1.483,3.6,13.153,13.153,0,0,0-.382,4.179,28.054,28.054,0,0,1,.119,4.02,5.817,5.817,0,0,1-1.313,3.351,5.9,5.9,0,0,1-2.835,1.668,5.815,5.815,0,0,0-3.15,1.856c-.111.14-.233-.159-.122-.3,1.59-2.017,3.722-1.594,5.461-3.018a4.974,4.974,0,0,0,1.712-3.288,21.758,21.758,0,0,0-.075-4.085,14.2,14.2,0,0,1,.284-4.109,15.917,15.917,0,0,1,1.4-3.681,25.525,25.525,0,0,1,4.493-6.27,16,16,0,0,1,6.193-4.033c.135-.046.151.318.016.363Z" transform="translate(-422.617 -500.134)" fill="#fff"/>
    <path id="Path_174" data-name="Path 174" d="M537.316,668.706a7.629,7.629,0,0,1,.066-6.319c.092-.175.257.058.165.234a7.058,7.058,0,0,0-.054,5.878C537.581,668.679,537.4,668.885,537.316,668.706Z" transform="translate(-465.013 -504.721)" fill="#fff"/>
    <path id="Path_175" data-name="Path 175" d="M524.346,707.63a4.075,4.075,0,0,0,3.9-1.8c.111-.14.233.16.122.3a4.23,4.23,0,0,1-4.064,1.855C524.17,707.962,524.209,707.6,524.346,707.63Z" transform="translate(-454.828 -534.836)" fill="#fff"/>
    <path id="Path_176" data-name="Path 176" d="M568.2,663.931a1.912,1.912,0,0,0,1.281,1.47c.138.023.1.381-.038.358a2.136,2.136,0,0,1-1.419-1.621.282.282,0,0,1,.027-.253C568.1,663.828,568.17,663.849,568.2,663.931Z" transform="translate(-490.677 -505.78)" fill="#fff"/>
    <path id="Path_177" data-name="Path 177" d="M611.838,156.028c-.7,0-1.268.964-1.269,2.151v90.95c0,1.187.568,2.149,1.269,2.151h78.678c.7,0,1.268-.963,1.269-2.151v-90.95c0-1.187-.568-2.149-1.269-2.151Z" transform="translate(-525.521 -153.991)" fill="#e6e6e6"/>
    <path id="Path_178" data-name="Path 178" d="M621.838,166.028c-.7,0-1.268.964-1.269,2.151v84.8c0,1.187.568,2.15,1.269,2.151H696.89c.7,0,1.268-.964,1.269-2.151v-84.8c0-1.187-.568-2.149-1.269-2.151Z" transform="translate(-533.708 -160.918)" fill="#fff"/>
    <path id="Path_179" data-name="Path 179" d="M719.827,225.8c-1.726-1.142-3.587,1.722-3.991,4.787s.113,6.234.227,9.368-.371,6.774-2.021,8.2c-1.9,1.643-4.123-.493-6.245-.818-2.153-.289-4.242,1.316-5.533,4.25-1.75,4.069-1.661,9.978-3.732,13.588a5.553,5.553,0,0,1-7.248,2.575c-2.517-.97-4.831-3.078-7.306-4.32s-5.34-1.5-7.461.992c-2.214,2.6-3.2,7.706-5.63,9.678-1.719,1.394-3.753.862-5.592.018s-3.694-1.983-5.593-1.712-3.878,2.491-4.029,5.711l65.165-.308.888-43.735C721.792,230.912,721.569,226.956,719.827,225.8Z" transform="translate(-562.45 -202.15)" fill="#6c63ff" opacity="0.1"/>
    <path id="Path_180" data-name="Path 180" d="M470.94,440.4a6.06,6.06,0,0,1,.137-3.129,2.68,2.68,0,0,1,1.5-1.831l1.145-13.032,3.008,4.57-1.548,11.675c.133,1.875-.582,3.623-1.665,4.069S471.329,442.173,470.94,440.4Z" transform="translate(-411.088 -338.525)" fill="#ffb6b6"/>
    <path id="Path_181" data-name="Path 181" d="M337.952,445.5a5.81,5.81,0,0,0,.4-3.061,4.048,4.048,0,0,0-1.125-2.491l1.136-13.035-3.661,2.894-.517,11.934a5.28,5.28,0,0,0,.9,4.713c.96.959,2.192.549,2.867-.954Z" transform="translate(-299.092 -341.642)" fill="#ffb6b6"/>
    <path id="Path_182" data-name="Path 182" d="M303.125,531.848h3.4l1.616-22.207h-5.013Z" transform="translate(-248.172 -353.047)" fill="#ffb6b6"/>
    <path id="Path_183" data-name="Path 183" d="M439.779,725.195h6.69c2.354,0,4.263,3.235,4.263,7.225v.235H439.779Z" transform="translate(-385.693 -548.273)" fill="#2f2e41"/>
    <path id="Path_184" data-name="Path 184" d="M203.125,531.848h3.4l1.616-22.207h-5.013Z" transform="translate(-166.3 -353.047)" fill="#ffb6b6"/>
    <path id="Path_185" data-name="Path 185" d="M339.779,725.195h6.69c2.354,0,4.263,3.235,4.263,7.225v.235H339.779Z" transform="translate(-303.821 -548.273)" fill="#2f2e41"/>
    <ellipse id="Ellipse_21" data-name="Ellipse 21" cx="6.136" cy="10.4" rx="6.136" ry="10.4" transform="translate(46.674 6.418)" fill="#ffb6b6"/>
    <path id="Path_186" data-name="Path 186" d="M342.037,445.647s.09,46.539-.348,47.282-1.994,28.576-1.994,28.576h5.439c.363,0,9.614-60.629,9.614-60.629s3.945,32.686,3.287,34.544-.145,26.2.219,28.229c0,0,4.57,2.479,5.008.622s1.088-27.039,1.088-27.039l1.269-41.788.028-10.91Z" transform="translate(-303.752 -353.848)" fill="#111019"/>
    <path id="Path_187" data-name="Path 187" d="M484.271,274.084h2.442c.37,0,.69.434.771,1.045a122.107,122.107,0,0,1,1.17,17.156c-.219,7.8-.657,20.058-.657,21.172s-2.191,18.2-2.191,18.2-1.507-4.2-3.164-3.4l.315-15.173.438-6.314-.657-11.143Z" transform="translate(-420.785 -235.773)" fill="#e4e4e4"/>
    <path id="Path_188" data-name="Path 188" d="M364.4,251.951s-7.78,4.386-8.656,8.1,3.379,30.642,3.379,30.642-1.632,12.291-3.818,23.959c-.995,5.31,8.5.764,12.882-1.836,2.716-1.6,7.739.855,10.567-.021,0,0,.438-10.029,0-11.886s-1.534-.743-.877-3.343.438-2.972.219-4.086.438-2.6.438-4.086-.219-4.829-.219-4.829,5.917-23.4,4.6-25.629-8.008-6.523-8.008-6.523S375.079,252.593,364.4,251.951Z" transform="translate(-316.476 -220.44)" fill="#e4e4e4"/>
    <path id="Path_189" data-name="Path 189" d="M340.179,274.084l-.778.66a4.085,4.085,0,0,0-1.176,2.642l-3.086,27.9-.657,26.372s3.726-1.857,4.821,0c0,0-1.1-5.572-.438-7.429a16.075,16.075,0,0,0,.657-4.457s-.438,0,.657-1.857,1.315-2.6,1.1-2.971a25.869,25.869,0,0,1-.438-4.086c0-.371,2.191-25.258,2.191-25.258Z" transform="translate(-299.484 -235.773)" fill="#e4e4e4"/>
    <path id="Path_190" data-name="Path 190" d="M652.318,274.257c-.2,0-.363-.275-.363-.615s.162-.615.363-.615a69.763,69.763,0,0,0,44.99-16.009c11.495-9.681,18.82-22.809,20.1-36.017.032-.335.218-.562.416-.508s.332.37.3.705v0a50.94,50.94,0,0,1-6.4,20,61.058,61.058,0,0,1-14.091,16.914A70.267,70.267,0,0,1,652.318,274.257Z" transform="translate(-559.404 -198.643)" fill="#6c63ff"/>
    <path id="Path_191" data-name="Path 191" d="M579.389,115.754H510.138V57.765h.363V115.14h68.889Z" transform="translate(-417.657 -40.016)" fill="#e6e6e6"/>
    <path id="Path_192" data-name="Path 192" d="M394.22,169.721a9.484,9.484,0,0,1-.128-3.673c.5,2.253,1.5,1.565,2,.509.636-1.325.453-4.385,1.458-4.522a6.88,6.88,0,0,1,3,.506l-.492-1.428,2.148.226-.64-1.784c1.969,1.173,3.551,3.71,4.35,6.978a12.957,12.957,0,0,0,.429-6.882,7.264,7.264,0,0,0-2.9-4.865l.848-1.885-5.751-.962a3.935,3.935,0,0,1,.669-2.45,2.051,2.051,0,0,0-2.192.876,13.334,13.334,0,0,0-1.649,2.737,26.086,26.086,0,0,0-2.02,4.834A18.1,18.1,0,0,0,394.22,169.721Zm.069-4.577h0l.006,0Z" transform="translate(-347.193 -149.399)" fill="#2f2e41"/>
    <path id="Path_193" data-name="Path 193" d="M258.992,748.951H141.647c-.119,0-.216-.164-.216-.366s.1-.366.216-.366H258.992c.119,0,.216.164.216.366S259.112,748.951,258.992,748.951Z" transform="translate(-141.431 -564.224)" fill="#cacaca"/>
  </g>
</svg>
