<svg xmlns="http://www.w3.org/2000/svg" width="27.888" height="23.5" viewBox="0 0 27.888 23.5">
  <g id="idea_2_" data-name="idea (2)" transform="translate(-20.668 -35)">
    <g id="Group_2" data-name="Group 2" transform="translate(20.668 35)">
      <g id="Group_1" data-name="Group 1">
        <path id="Path_158" data-name="Path 158" d="M62.258,2.054a.911.911,0,0,0,1.038,0,.463.463,0,0,0,0-.783L61.828.162a.91.91,0,0,0-1.038,0,.464.464,0,0,0,0,.783Z" transform="translate(-55.913)"/>
        <path id="Path_159" data-name="Path 159" d="M217.807.162l-1.468,1.109a.463.463,0,0,0,0,.783.91.91,0,0,0,1.037,0L218.845.945a.463.463,0,0,0,0-.783A.91.91,0,0,0,217.807.162Z" transform="translate(-195.316 0)"/>
        <path id="Path_160" data-name="Path 160" d="M62.258,169.852l-1.468,1.108a.464.464,0,0,0,0,.783.91.91,0,0,0,1.038,0l1.468-1.108a.463.463,0,0,0,0-.783A.908.908,0,0,0,62.258,169.852Z" transform="translate(-55.913 -156.396)"/>
        <path id="Path_161" data-name="Path 161" d="M217.376,169.852a.907.907,0,0,0-1.037,0,.463.463,0,0,0,0,.783l1.468,1.108a.91.91,0,0,0,1.038,0,.463.463,0,0,0,0-.783Z" transform="translate(-195.316 -156.396)"/>
        <path id="Path_162" data-name="Path 162" d="M17.87,94.966H16.4c-.406,0-.734.248-.734.554s.328.554.734.554H17.87c.406,0,.734-.248.734-.554S18.276,94.966,17.87,94.966Z" transform="translate(-15.668 -87.527)"/>
        <path id="Path_163" data-name="Path 163" d="M258.25,94.966h-1.468c-.406,0-.734.248-.734.554s.328.554.734.554h1.468c.406,0,.734-.248.734-.554S258.656,94.966,258.25,94.966Z" transform="translate(-231.096 -87.527)"/>
        <path id="Path_164" data-name="Path 164" d="M73.8,20.581a10.977,10.977,0,0,0,2.354-1.2A6.58,6.58,0,0,0,79.013,14.3a6.25,6.25,0,0,0-2.732-5.1,11.838,11.838,0,0,0-13.49,0,6.582,6.582,0,0,0-2.859,5.082,6.25,6.25,0,0,0,2.732,5.1,11.506,11.506,0,0,0,2.213,1.245v6.087c0,1.833,1.975,3.323,4.4,3.323s4.4-1.491,4.4-3.323V24.494c0-.007,0-.014,0-.021V21.724c0-.007,0-.015,0-.022V20.631ZM63.7,18.593a5.269,5.269,0,0,1-2.3-4.3,5.587,5.587,0,0,1,2.431-4.315,10.02,10.02,0,0,1,11.415,0,5.265,5.265,0,0,1,2.3,4.3,5.582,5.582,0,0,1-2.431,4.315A9.866,9.866,0,0,1,73.1,19.609c-.186.078-.36.149-.514.216a.548.548,0,0,0-.366.48v1.419H66.344V20.3a.549.549,0,0,0-.366-.48A11.29,11.29,0,0,1,63.7,18.593Zm3.2,4.239,5.311,2v.713L66.344,23.58v-.748Zm3.282,0h2.029V23.6Zm-3.842,1.96,4.064,1.363H66.344Zm2.936,4.132a2.913,2.913,0,0,1-2.843-1.661h5.685A2.913,2.913,0,0,1,69.28,28.924Z" transform="translate(-55.336 -6.532)"/>
        <path id="Path_165" data-name="Path 165" d="M91.816,58.373a3.247,3.247,0,0,1,0-5.482.464.464,0,0,0,0-.783.908.908,0,0,0-1.038,0,4.174,4.174,0,0,0,0,7.047.913.913,0,0,0,1.038,0A.464.464,0,0,0,91.816,58.373Z" transform="translate(-81.246 -47.877)"/>
      </g>
    </g>
  </g>
</svg>
