<svg id="logo" xmlns="http://www.w3.org/2000/svg" width="133.163" height="129.868" viewBox="0 0 133.163 129.868">
  <path id="Path_57" data-name="Path 57" d="M33.85,30.437,0,30.437c0,16.81,15.155,30.437,33.85,30.437S67.7,47.247,67.7,30.437,52.546,0,33.85,0,0,13.627,0,30.437" transform="translate(11.165 68.993)" fill="#fff"/>
  <path id="_0jdQD07NULSEAxiaxZPOE" d="M38.218.008C17.111.008,0,15.394,0,34.373S17.111,68.738,38.218,68.738,76.437,53.352,76.437,34.373,59.325.008,38.218.008Zm0,63.559C20.287,63.567,5.75,50.5,5.75,34.373S20.286,5.178,38.218,5.178s32.468,13.07,32.468,29.195S56.149,63.567,38.218,63.567Z" transform="translate(28.363 18.937)" fill="#2f2e41"/>
  <path id="_j680GwHHsxer36p6m-UmU" d="M-56.251,46.7l-4.386-.313-4.11,5.7,2.614,2.772-.814,1.129-9.717-10.451.771-1.07,16.466,1.089Zm-9.332,4.5,3.545-4.918-8.807-.642Zm15.163-9.435-8.627-9.621,5.014-2.749a10.444,10.444,0,0,1,3.992-1.275,8.682,8.682,0,0,1,3.848.431A7.329,7.329,0,0,1-43.13,30.6h0a5.178,5.178,0,0,1,1.411,2.948,4.484,4.484,0,0,1-.793,2.976,7.94,7.94,0,0,1-2.894,2.5h0Zm.512-1.6,3.64-2a6.5,6.5,0,0,0,2.381-2.052,3.645,3.645,0,0,0,.639-2.419A4.246,4.246,0,0,0-44.41,31.3h0a6.008,6.008,0,0,0-2.5-1.675,7.176,7.176,0,0,0-3.13-.359,8.543,8.543,0,0,0-3.279,1.051h0l-3.64,2Zm18.549-7.005-3.626-11.4,5.943-1.155a11.354,11.354,0,0,1,4.311-.068,7.605,7.605,0,0,1,3.393,1.484,5.646,5.646,0,0,1,1.92,2.767h0a4.654,4.654,0,0,1-.039,3.148A5.527,5.527,0,0,1-21.566,30.5a10.037,10.037,0,0,1-3.85,1.519h0Zm1.212-1.345,4.314-.839a8.214,8.214,0,0,0,3.165-1.246,4.49,4.49,0,0,0,1.709-2.077,3.811,3.811,0,0,0,.022-2.573h0A4.629,4.629,0,0,0-22.5,22.825a6.277,6.277,0,0,0-2.756-1.215,9.291,9.291,0,0,0-3.543.059h0l-4.314.839Zm22.108-2.621,9.032.271L.94,30.552l-10.621-.318.576-11.741,10.3.309-.053,1.071-8.711-.261-.2,4.178L0,24.022l-.052,1.055-7.769-.233Zm35.62-4.926,1.23.353L23.633,35.663,22.2,35.252l4.144-8.827-9.026,5.834-.7-.2L14.531,23.09,10.41,31.868l-1.431-.411,5.178-11.031,1.23.353,2.292,9.939Zm3.712,15.477,9.8-8.906,1.206.811-8.9,8.09,6.38,4.292-.9.816ZM60.5,50.5,48.992,50l-4.575,1.923-.741-1.077,4.575-1.923,5.813-7.784.8,1.169-4.991,6.673,9.871.427Z" transform="translate(72.664 -18.492)" fill="#6c63ff"/>
  <g id="_36D3Fpvw8BhKXlW5C9wVS" transform="translate(45.015 36.777)">
    <path id="_DM-25yiJOpjY_yesepP-5" d="M53.95,23.309H16.208a2.428,2.428,0,0,0-2.7,2.424v24.24a2.428,2.428,0,0,0,2.7,2.424H53.95a2.428,2.428,0,0,0,2.7-2.424V25.733A2.428,2.428,0,0,0,53.95,23.309Zm-2.7,24.24H18.9V28.157h32.35Z" transform="translate(-13.513 -23.309)" fill="#6c63ff"/>
    <path id="_rO_PbUmBbAggpYK0ds17q" d="M19.368,18.876H1.882a2.005,2.005,0,0,1,0-4H19.368a2.005,2.005,0,0,1,0,4" transform="translate(10.959 17.13)" fill="#1d2936"/>
    <path id="_PwCsJ5XFgxHZ2ZBYDqqYB" d="M304.054-83.547c2.025-.046,3.038,2.14,1.6,3.415L295.32-70.845a1.8,1.8,0,0,1-2.329,0L287.75-75.58c-2.177-1.867,1.038-4.758,3.114-2.8l2.911,2.618a.632.632,0,0,0,.785,0l7.975-7.171a2.291,2.291,0,0,1,1.519-.615Z" transform="translate(-275.076 91.903)" fill="#2f2e41"/>
  </g>
  <path id="Path_58" data-name="Path 58" d="M-57.283-26.86-55.9-40.868l2.881,1.116a3.933,3.933,0,0,1,1.894,1.66,8.313,8.313,0,0,1,1.09,3,13.88,13.88,0,0,1,.115,3.815h0a11.112,11.112,0,0,1-.833,3.447,4.138,4.138,0,0,1-1.58,1.963,2.267,2.267,0,0,1-2.07.124h0Zm.874-.99,2.093.811a1.852,1.852,0,0,0,1.7-.1,3.423,3.423,0,0,0,1.28-1.6,9.107,9.107,0,0,0,.679-2.823h0a11.37,11.37,0,0,0-.091-3.122,6.862,6.862,0,0,0-.88-2.44,3.208,3.208,0,0,0-1.556-1.36h0l-2.093-.811Zm11.091-5.73a2.382,2.382,0,0,1,1.53,1.524,7.406,7.406,0,0,1,.323,3.243h0l-.507,6.572-.694-.21.128-1.654a2.211,2.211,0,0,1-.817,1.077,1.353,1.353,0,0,1-1.16.122h0a2.188,2.188,0,0,1-1.36-1.279,4.763,4.763,0,0,1-.358-2.394h0a3.591,3.591,0,0,1,.662-2.03,1.412,1.412,0,0,1,1.636-.352h0l1.7.514.049-.642a5.007,5.007,0,0,0-.225-2.2,1.664,1.664,0,0,0-1.076-1.056h0a1.508,1.508,0,0,0-1,.036,2.053,2.053,0,0,0-.874.673h0l-.244-1.165a2.324,2.324,0,0,1,1.059-.763,1.978,1.978,0,0,1,1.23-.011Zm-1,9.577a1.086,1.086,0,0,0,1.093-.237,2.986,2.986,0,0,0,.775-1.4h0l.134-1.734L-46-27.886q-1.375-.415-1.521,1.479h0a3,3,0,0,0,.244,1.569,1.529,1.529,0,0,0,.956.835Zm6.615-5.823a2.866,2.866,0,0,1,.862-1.431,1.428,1.428,0,0,1,1.286-.238h0l-.088,1.4-.171-.064a1.206,1.206,0,0,0-1.394.7,6.34,6.34,0,0,0-.664,2.777h0l-.342,5.421-.726-.18.672-10.643.7.172Zm8.768,5.164-.031.442-4.51-.884a6.394,6.394,0,0,0,.511,2.815,2.075,2.075,0,0,0,1.424,1.316h0a1.262,1.262,0,0,0,.94-.174,2.34,2.34,0,0,0,.781-.906h0l.363,1.015a2.7,2.7,0,0,1-.962,1.122,1.633,1.633,0,0,1-1.205.216h0a2.333,2.333,0,0,1-1.436-.99,5.686,5.686,0,0,1-.9-2.132,10.573,10.573,0,0,1-.219-2.869h0a9.889,9.889,0,0,1,.484-2.735,4.1,4.1,0,0,1,1.038-1.743,1.541,1.541,0,0,1,1.382-.425h0a2.1,2.1,0,0,1,1.309.952,5.753,5.753,0,0,1,.837,2.1,11.125,11.125,0,0,1,.2,2.877Zm-2.4-4.693a1.3,1.3,0,0,0-1.356.729,5.394,5.394,0,0,0-.726,2.449h0l3.823.749a6.579,6.579,0,0,0-.472-2.684,1.87,1.87,0,0,0-1.268-1.243Zm11.1,9.571.226,1.065a1.328,1.328,0,0,1-.527.5,1.083,1.083,0,0,1-.638.12h0a1.433,1.433,0,0,1-1.147-.953,5.437,5.437,0,0,1-.342-2.347h0l.2-6.475-.966-.114.037-1.221.966.114.071-2.341.73.086-.071,2.341,1.645.195-.037,1.221-1.645-.195-.193,6.39a3.633,3.633,0,0,0,.2,1.487.847.847,0,0,0,.679.578h0a.732.732,0,0,0,.441-.088,1.089,1.089,0,0,0,.379-.364Zm4.62,2.193a1.973,1.973,0,0,1-1.4-.8,5.249,5.249,0,0,1-.953-2.014,10.3,10.3,0,0,1-.309-2.836h0a9.91,9.91,0,0,1,.411-2.789A4.55,4.55,0,0,1-18.84-27.9a1.768,1.768,0,0,1,1.421-.592h0a1.992,1.992,0,0,1,1.4.792,5.1,5.1,0,0,1,.947,2.005,10.432,10.432,0,0,1,.305,2.84h0a10.007,10.007,0,0,1-.407,2.785A4.57,4.57,0,0,1-16.192-18.2a1.761,1.761,0,0,1-1.424.6Zm.023-1.282a1.284,1.284,0,0,0,1.045-.449,3.417,3.417,0,0,0,.741-1.427,8.231,8.231,0,0,0,.3-2.16h0a8.594,8.594,0,0,0-.218-2.2,3.865,3.865,0,0,0-.687-1.528,1.448,1.448,0,0,0-1.026-.591h0a1.282,1.282,0,0,0-1.043.445,3.436,3.436,0,0,0-.747,1.426,8.083,8.083,0,0,0-.3,2.163h0A8.349,8.349,0,0,0-19.31-21a3.888,3.888,0,0,0,.694,1.528,1.437,1.437,0,0,0,1.024.6Zm11.81-9.318a1.807,1.807,0,0,1,1.383.66,4.692,4.692,0,0,1,.976,1.908,10.4,10.4,0,0,1,.364,2.831h0A10.565,10.565,0,0,1-3.4-19.932a4.888,4.888,0,0,1-.953,1.941,1.855,1.855,0,0,1-1.383.708h0A1.609,1.609,0,0,1-6.926-17.8,3.912,3.912,0,0,1-7.8-19.368h0l.026,5.972-.732.012-.064-14.68.7-.012.009,2.12A4.2,4.2,0,0,1-7-27.6a1.671,1.671,0,0,1,1.218-.59Zm-.01,9.626a1.38,1.38,0,0,0,1.028-.54A3.679,3.679,0,0,0-4.046-20.6a8.24,8.24,0,0,0,.254-2.184h0a8.117,8.117,0,0,0-.273-2.17A3.682,3.682,0,0,0-4.8-26.416a1.338,1.338,0,0,0-1.032-.509h0a1.367,1.367,0,0,0-1.032.544,3.831,3.831,0,0,0-.715,1.491,8.191,8.191,0,0,0-.254,2.179h0a8.164,8.164,0,0,0,.273,2.175,3.6,3.6,0,0,0,.727,1.466,1.332,1.332,0,0,0,1.037.5Zm5.87-7.694a3.8,3.8,0,0,1,.737-1.683,1.745,1.745,0,0,1,1.251-.639h0l.025,1.405-.174-.009A1.59,1.59,0,0,0,.6-26.053,7.25,7.25,0,0,0,.163-23.1h0l.1,5.46-.731.05-.188-10.72.7-.048Zm9.07,2.348.005.446-4.524.545a5.478,5.478,0,0,0,.73,2.619,1.539,1.539,0,0,0,1.512.852h0a1.547,1.547,0,0,0,.914-.468,3.253,3.253,0,0,0,.7-1.14h0l.44.888a3.742,3.742,0,0,1-.86,1.41,2,2,0,0,1-1.173.592h0a1.79,1.79,0,0,1-1.5-.526,4.3,4.3,0,0,1-1.062-1.821,9.728,9.728,0,0,1-.446-2.764h0a10.848,10.848,0,0,1,.258-2.853,5.431,5.431,0,0,1,.885-2.047,1.973,1.973,0,0,1,1.33-.854h0a1.6,1.6,0,0,1,1.369.529,4.4,4.4,0,0,1,1,1.812,10.293,10.293,0,0,1,.425,2.779ZM6.4-27.788a1.731,1.731,0,0,0-1.28,1.146A6.359,6.359,0,0,0,4.6-24h0l3.834-.462a5.657,5.657,0,0,0-.681-2.5A1.381,1.381,0,0,0,6.4-27.788Zm6.925,8.653a2.167,2.167,0,0,1-1.274-.149,2.312,2.312,0,0,1-.982-.774h0l.274-1.2a2.363,2.363,0,0,0,.892.709,1.783,1.783,0,0,0,1.082.142h0a1.514,1.514,0,0,0,1.071-.654,2.265,2.265,0,0,0,.3-1.35h0a1.694,1.694,0,0,0-.237-.891,1.143,1.143,0,0,0-.517-.418,3.7,3.7,0,0,0-.8-.192h0a5.064,5.064,0,0,1-1.081-.308,1.621,1.621,0,0,1-.721-.74,3.8,3.8,0,0,1-.36-1.633h0a4.266,4.266,0,0,1,.463-2.293,2.113,2.113,0,0,1,1.529-1.138h0a2.1,2.1,0,0,1,1.06.086,2.129,2.129,0,0,1,.894.564h0l-.265,1.217a1.69,1.69,0,0,0-1.632-.626h0a1.435,1.435,0,0,0-1.029.676,2.345,2.345,0,0,0-.294,1.341h0a1.891,1.891,0,0,0,.244.941,1.126,1.126,0,0,0,.523.447,4.266,4.266,0,0,0,.837.207h0a5.389,5.389,0,0,1,1.059.3,1.584,1.584,0,0,1,.705.713,3.6,3.6,0,0,1,.353,1.574h0a4.126,4.126,0,0,1-.487,2.332,2.251,2.251,0,0,1-1.6,1.116Zm8.985-7.5.019.445-4.5,1.112a5.071,5.071,0,0,0,.812,2.522,1.4,1.4,0,0,0,1.536.66h0a1.739,1.739,0,0,0,.9-.582,3.667,3.667,0,0,0,.66-1.225h0l.468.83a4.215,4.215,0,0,1-.813,1.515,2.243,2.243,0,0,1-1.151.739h0a1.672,1.672,0,0,1-1.511-.337,3.8,3.8,0,0,1-1.118-1.684,9.264,9.264,0,0,1-.534-2.7h0a11.085,11.085,0,0,1,.167-2.879,5.987,5.987,0,0,1,.818-2.154,2.236,2.236,0,0,1,1.3-1.019h0a1.485,1.485,0,0,1,1.383.356,3.894,3.894,0,0,1,1.051,1.683,9.817,9.817,0,0,1,.514,2.72Zm-2.869-3.524a1.968,1.968,0,0,0-1.241,1.3,6.682,6.682,0,0,0-.435,2.706h0l3.812-.943a5.24,5.24,0,0,0-.76-2.411,1.249,1.249,0,0,0-1.376-.657ZM27-33.615a1.4,1.4,0,0,1,1.7.62,6.533,6.533,0,0,1,.88,3.169h0l.524,6.132-.719.241-.512-5.989a5.17,5.17,0,0,0-.632-2.373,1.015,1.015,0,0,0-1.263-.469h0a2.153,2.153,0,0,0-1.278,1.475,7.177,7.177,0,0,0-.264,2.971h0l.474,5.55-.722.242-.9-10.576.692-.232.167,1.952a4.816,4.816,0,0,1,.689-1.773A2.284,2.284,0,0,1,27-33.615Zm8.464,6,.362.907a2.329,2.329,0,0,1-.44.76,1.657,1.657,0,0,1-.6.454h0a.951.951,0,0,1-1.234-.31,4.189,4.189,0,0,1-.647-2.08h0l-.687-6.342-.946.4-.129-1.2.946-.4-.248-2.293.716-.3.248,2.293,1.611-.684.13,1.2-1.612.684.678,6.259A2.838,2.838,0,0,0,34-26.944a.559.559,0,0,0,.732.2h0a1.127,1.127,0,0,0,.413-.319,1.913,1.913,0,0,0,.316-.551Z" transform="translate(78.053 122.787)" fill="#6c63ff"/>
</svg>
