<svg xmlns="http://www.w3.org/2000/svg" width="34.055" height="45.494" viewBox="0 0 34.055 45.494">
  <path id="metronome-svgrepo-com" d="M65.4,9.429a2.192,2.192,0,0,0-3.438-.13L59.91,11.544l-.649-.759a2.193,2.193,0,0,0-3.44,0,3.193,3.193,0,0,0,0,4.021l.539.63-2.682,2.939L51.932,2.491A2.636,2.636,0,0,0,49.452,0H38.871a2.636,2.636,0,0,0-2.479,2.491L32.019,42.3a2.737,2.737,0,0,0,2.479,3.2H53.825A2.737,2.737,0,0,0,56.3,42.3L54.441,25.332l5.36-5.874.885,1.034a2.193,2.193,0,0,0,3.44,0,3.193,3.193,0,0,0,0-4.021l-.774-.9,1.934-2.119A3.191,3.191,0,0,0,65.4,9.429Zm-27.921,19h-.611L39.3,5.687h9.73l1.7,15.918-4.135,4.531V14.217a2.662,2.662,0,0,0-2.432-2.843,2.662,2.662,0,0,0-2.432,2.843V28.434H37.475Z" transform="translate(-31.999)" fill="#6c63ff"/>
</svg>
