<svg xmlns="http://www.w3.org/2000/svg" width="41.971" height="45.494" viewBox="0 0 41.971 45.494">
  <path id="pause-button-svgrepo-com" d="M20.985,0C9.4,0,0,10.184,0,22.747S9.4,45.494,20.985,45.494,41.971,35.31,41.971,22.747,32.575,0,20.985,0ZM18.362,28.434a1.37,1.37,0,0,1-1.312,1.422H14.427a1.37,1.37,0,0,1-1.312-1.422V17.06a1.37,1.37,0,0,1,1.312-1.422h2.623a1.37,1.37,0,0,1,1.312,1.422Zm10.493,0a1.37,1.37,0,0,1-1.312,1.422H24.92a1.37,1.37,0,0,1-1.312-1.422V17.06a1.37,1.37,0,0,1,1.312-1.422h2.623a1.37,1.37,0,0,1,1.312,1.422Z" fill="#6c63ff"/>
</svg>
