<svg id="record" xmlns="http://www.w3.org/2000/svg" width="257.223" height="184.728" viewBox="0 0 257.223 184.728">
  <path id="Path_60" data-name="Path 60" d="M492.6,329.261H410.64c-4.045-.006-7.323-4.1-7.327-9.152V171.652c0-5.052,3.282-9.146,7.327-9.152H492.6c4.045.006,7.323,4.1,7.327,9.152V320.109C499.925,325.161,496.647,329.255,492.6,329.261Z" transform="translate(-325.294 -162.5)" fill="#cbcbcb"/>
  <path id="Path_61" data-name="Path 61" d="M506.966,335.758H424.716a2.59,2.59,0,0,1-2.259-2.821V183.5a2.59,2.59,0,0,1,2.259-2.821h82.251a2.59,2.59,0,0,1,2.259,2.821V332.937a2.59,2.59,0,0,1-2.259,2.821Z" transform="translate(-339.514 -174.836)" fill="#fff"/>
  <ellipse id="Ellipse_5" data-name="Ellipse 5" cx="0.623" cy="0.779" rx="0.623" ry="0.779" transform="translate(125.392 2.024)" fill="#fff"/>
  <path id="Path_62" data-name="Path 62" d="M586.96,523.925h-.048a.442.442,0,0,1-.386-.482v-4.819a.442.442,0,0,1,.386-.482h.048a.442.442,0,0,1,.386.482v4.819A.443.443,0,0,1,586.96,523.925Z" transform="translate(-461.381 -403.887)" fill="#3f3d56"/>
  <path id="Path_63" data-name="Path 63" d="M592.96,523.925h-.048a.442.442,0,0,1-.386-.482v-4.819a.442.442,0,0,1,.386-.482h.048a.442.442,0,0,1,.386.482v4.819A.443.443,0,0,1,592.96,523.925Z" transform="translate(-465.838 -403.887)" fill="#3f3d56"/>
  <path id="Path_64" data-name="Path 64" d="M462.053,523.783h-.048a.442.442,0,0,1-.386-.482v-4.819a.442.442,0,0,1,.386-.482h.048a.442.442,0,0,1,.386.482V523.3A.442.442,0,0,1,462.053,523.783Z" transform="translate(-368.603 -403.79)" fill="#3f3d56"/>
  <path id="Path_65" data-name="Path 65" d="M467.432,523.844a.221.221,0,0,1-.189-.123l-1.4-2.481a.584.584,0,0,1,0-.55l1.4-2.541a.21.21,0,0,1,.259-.112.289.289,0,0,1,.163.276v5.243a.289.289,0,0,1-.162.276A.193.193,0,0,1,467.432,523.844Z" transform="translate(-371.689 -403.806)" fill="#3f3d56"/>
  <path id="Path_66" data-name="Path 66" d="M717.435,523.3v-4.819a.442.442,0,0,1,.386-.482h.048a.442.442,0,0,1,.386.482V523.3a.442.442,0,0,1-.386.482h-.048A.442.442,0,0,1,717.435,523.3Z" transform="translate(-558.617 -403.79)" fill="#3f3d56"/>
  <path id="Path_67" data-name="Path 67" d="M709.281,523.83a.289.289,0,0,1-.162-.276v-5.243a.289.289,0,0,1,.163-.276.21.21,0,0,1,.259.112l1.4,2.541a.584.584,0,0,1,0,.55l-1.4,2.481a.222.222,0,0,1-.189.123.194.194,0,0,1-.07-.014Z" transform="translate(-552.44 -403.805)" fill="#3f3d56"/>
  <rect id="Rectangle_17" data-name="Rectangle 17" width="66.466" height="0.643" transform="translate(93.146 104.732)" fill="#cbcbcb"/>
  <rect id="Rectangle_18" data-name="Rectangle 18" width="45.014" height="0.643" transform="translate(93.146 104.732)" fill="#6c63ff"/>
  <ellipse id="Ellipse_6" data-name="Ellipse 6" cx="1.801" cy="2.249" rx="1.801" ry="2.249" transform="translate(136.359 102.805)" fill="#6c63ff"/>
  <path id="Path_68" data-name="Path 68" d="M578.121,300.452c-2.485,0-4.5-2.519-4.5-5.622V282.622c0-3.105,2.015-5.622,4.5-5.622s4.5,2.517,4.5,5.622V294.83C582.62,297.934,580.606,300.449,578.121,300.452Z" transform="translate(-451.794 -240.215)" fill="#6c63ff"/>
  <path id="Path_69" data-name="Path 69" d="M563.637,337.351c-5.254-.007-9.511-5.325-9.517-11.887a.791.791,0,1,1,1.543,0c0,5.5,3.57,9.959,7.974,9.959s7.974-4.459,7.974-9.959a.791.791,0,1,1,1.543,0C573.149,332.026,568.891,337.343,563.637,337.351Z" transform="translate(-437.31 -272.455)" fill="#6c63ff"/>
  <path id="Path_70" data-name="Path 70" d="M588.892,372.029a.884.884,0,0,1-.772-.964v-10.6a.791.791,0,1,1,1.543,0v10.6a.884.884,0,0,1-.772.964Z" transform="translate(-462.564 -296.211)" fill="#6c63ff"/>
  <ellipse id="Ellipse_7" data-name="Ellipse 7" cx="0.514" cy="0.643" rx="0.514" ry="0.643" transform="translate(124.012 39.837)" fill="#fff"/>
  <ellipse id="Ellipse_8" data-name="Ellipse 8" cx="0.514" cy="0.643" rx="0.514" ry="0.643" transform="translate(124.012 45.941)" fill="#fff"/>
  <ellipse id="Ellipse_9" data-name="Ellipse 9" cx="0.514" cy="0.643" rx="0.514" ry="0.643" transform="translate(127.613 42.086)" fill="#fff"/>
  <path id="Path_71" data-name="Path 71" d="M577.353,394.965H565.128a.988.988,0,0,1,0-1.928h12.225a.988.988,0,0,1,0,1.928Z" transform="translate(-444.913 -318.973)" fill="#6c63ff"/>
  <path id="Path_72" data-name="Path 72" d="M834.013,605.212c-.291-.267-.589-.514-.893-.749-.183-.148-.37-.286-.558-.421l-.077-.058a15.841,15.841,0,0,0-2.958-1.658,14.261,14.261,0,0,0-3.058-.919.264.264,0,0,0-.049-.01c-.28-.051-.563-.093-.849-.122-.2-.026-.4-.045-.6-.055-.257-.023-.514-.035-.777-.039-.077,0-.157,0-.237,0a13.852,13.852,0,0,0-2.511.228c-.183.032-.365.068-.545.106l-.357.087q-.737.188-1.448.447c-.216.08-.43.164-.643.254-.288.119-.571.247-.851.389-.25.119-.494.251-.736.385a17.943,17.943,0,0,0-5.319,4.658,20.988,20.988,0,0,0-1.659,2.464q-.359.622-.682,1.279a23.128,23.128,0,0,0-1.06,2.49,25.557,25.557,0,0,0-1.307,5.478,27.013,27.013,0,0,0-.211,3.38c0,.206,0,.411.008.614a24.943,24.943,0,0,0,3.779,12.87q.378.6.792,1.157c.275.373.561.736.857,1.083.363.43.738.835,1.127,1.224,4.856,4.827,11.411,6.032,17.175,3.158.391-.193.774-.4,1.147-.633q-.417-.569-.792-1.182c-.373.218-.751.418-1.14.6-5.462,2.537-11.595,1.194-16.04-3.511-.34-.36-.671-.739-.985-1.134-.352-.44-.689-.9-1.006-1.378-.273-.408-.535-.832-.779-1.269a24.119,24.119,0,0,1,1.011-24.8q.216-.313.44-.607c.306-.4.623-.79.952-1.16a15.906,15.906,0,0,1,5.309-3.98c.018-.01.039-.016.057-.026.062-.029.126-.055.19-.084a13.788,13.788,0,0,1,1.865-.646c.229-.061.46-.116.692-.164.005,0,.008,0,.013,0a13.444,13.444,0,0,1,1.976-.254c.226-.013.455-.019.684-.019.283,0,.568.01.849.032.2.01.4.029.6.051.175.019.35.042.522.071a13.836,13.836,0,0,1,5.715,2.287,15.389,15.389,0,0,1,1.332,1.012c.345.292.682.6,1.006.922.334-.305.682-.594,1.037-.864C834.695,605.841,834.358,605.514,834.013,605.212Z" transform="translate(-624.868 -460.247)" fill="#3f3d56"/>
  <path id="Path_73" data-name="Path 73" d="M809.677,512.984l-.936,19.872H790.356a5.713,5.713,0,0,0-4.324,2.042,7.976,7.976,0,0,0-1.854,4.677l2.1.933a4.807,4.807,0,0,1,.074-.9,4.941,4.941,0,0,1,1.629-3.03,2.592,2.592,0,0,1,1.562-.5h20.839l1.171-20.748h7.017v-2.353Z" transform="translate(-608.191 -400.386)" fill="#3f3d56"/>
  <path id="Path_74" data-name="Path 74" d="M829.272,543.94l-.005.157L828.7,562.85l-.046,1.491c-.167-.006-.334-.01-.5-.01q-.494,0-.98.039a13.2,13.2,0,0,0-4.645,1.224c-.386.18-.767.379-1.137.594a15.091,15.091,0,0,0-1.693,1.144c-.355.27-.7.559-1.037.864a18.938,18.938,0,0,0-3.686,4.674,19.962,19.962,0,0,0-.975,1.953l-1.361.016-9.291.129-5.394.077h0l-3.8.051-1.327.019h-.1l-1.212.016-2.616.039-1.217.016-1.687.022,1.052-12.42,9.175.633,1.626.112.427.029,4,.276.859.058,2.125.148.713.048,3.455.238.054-.479.1-.925.062-.556.332-2.991.105-.938.149-1.346v-.01l.013-.122.345-3.1.28-2.5.26-2.329v-.01l.414-3.743.069-.614.818-.035,3.179-.128,1.4-.058,4.417-.183,6.161-.254h0l.509-.023.121-.006h0Z" transform="translate(-609.537 -421.397)" fill="#2f2e41"/>
  <ellipse id="Ellipse_10" data-name="Ellipse 10" cx="3.187" cy="3.981" rx="3.187" ry="3.981" transform="translate(215.421 159.103)" fill="#3f3d56"/>
  <ellipse id="Ellipse_11" data-name="Ellipse 11" cx="2.191" cy="2.737" rx="2.191" ry="2.737" transform="translate(195.18 160.44)" fill="#3f3d56"/>
  <path id="Path_75" data-name="Path 75" d="M893.428,604.3c-.388.19-.772.4-1.147.63a16.676,16.676,0,0,0-1.906,1.356q-.532.429-1.034.912a20.765,20.765,0,0,0-4.121,5.6h1.44a18.935,18.935,0,0,1,3.686-4.674c.334-.305.682-.594,1.036-.864a15.089,15.089,0,0,1,1.693-1.144c.37-.215.751-.414,1.137-.594a13.2,13.2,0,0,1,4.646-1.224v-1.5a14.321,14.321,0,0,0-5.43,1.5Zm-9.458,11.414h1.314c.126-.328.26-.652.4-.967l-1.361.016C884.2,615.074,884.08,615.392,883.97,615.713Zm16.995-12.905c-.19-.019-.383-.029-.576-.035s-.365-.013-.551-.013c-.329,0-.656.013-.98.035a14.321,14.321,0,0,0-5.43,1.5c-.388.19-.772.4-1.147.63a16.685,16.685,0,0,0-1.906,1.356q-.532.429-1.034.912a21.443,21.443,0,0,0-5.016,7.566c-.126.312-.244.63-.355.951a24.7,24.7,0,0,0-.921,3.328q-.23,1.108-.36,2.242-.116.993-.157,2.008c-.015.369-.023.739-.023,1.112q0,1.23.111,2.454a24.851,24.851,0,0,0,3.323,10.464c.249.418.512.826.784,1.218,5.135,7.431,13.633,9.614,20.7,5.316s10.932-14,9.415-23.629-8.034-16.782-15.877-17.418Zm-1.127,41.745c-4.562,0-8.91-2.413-11.964-6.647q-.416-.569-.792-1.182a23.288,23.288,0,0,1-3.367-11.614c-.008-.235-.01-.469-.01-.707a24.269,24.269,0,0,1,1.579-8.69c.126-.328.26-.652.4-.967a19.99,19.99,0,0,1,.975-1.953,18.938,18.938,0,0,1,3.686-4.674c.334-.305.682-.594,1.037-.864a15.083,15.083,0,0,1,1.693-1.144c.37-.215.751-.414,1.137-.594a13.2,13.2,0,0,1,4.645-1.224q.486-.039.98-.039c.17,0,.337,0,.5.01.208.01.417.022.622.039,8.671.756,15.3,9.956,15,20.805S908.53,644.555,899.838,644.553ZM883.715,625.11c-.008-.235-.01-.469-.01-.707a24.269,24.269,0,0,1,1.579-8.69H883.97a24.709,24.709,0,0,0-.921,3.328,3.421,3.421,0,0,1,.059.636,3.2,3.2,0,0,1-.419,1.606q-.116.993-.157,2.008c-.015.37-.023.739-.023,1.112q0,1.23.111,2.454a24.85,24.85,0,0,0,3.323,10.464c.388-.18.767-.379,1.14-.6A23.288,23.288,0,0,1,883.715,625.11Z" transform="translate(-681.229 -461.32)" fill="#3f3d56"/>
  <ellipse id="Ellipse_12" data-name="Ellipse 12" cx="0.271" cy="0.338" rx="0.271" ry="0.338" transform="translate(208.437 132.073)" opacity="0.1"/>
  <ellipse id="Ellipse_13" data-name="Ellipse 13" cx="0.271" cy="0.338" rx="0.271" ry="0.338" transform="translate(207.517 137.678)" opacity="0.1"/>
  <path id="Path_76" data-name="Path 76" d="M663.684,515.16h-2.442L660.08,503.4h3.6Z" transform="translate(-490.292 -341.672)" fill="#ffb7b7"/>
  <path id="Path_77" data-name="Path 77" d="M753.15,699.413l-2.539,0h-1.646c-1.694,0-3.067,1.714-3.066,3.829v.125h7.874v-3.952Z" transform="translate(-579.759 -526.919)" fill="#2f2e41"/>
  <path id="Path_78" data-name="Path 78" d="M695.677,519.536l-2.442-.063-.969-11.791,3.6.092Z" transform="translate(-514.199 -344.581)" fill="#ffb7b7"/>
  <path id="Path_79" data-name="Path 79" d="M784.464,703.754l-2.541-.064-1.644-.042a2.759,2.759,0,0,0-2.186,1.062,4.316,4.316,0,0,0-.942,2.684l0,.125,7.874.2.013-.813.051-3.139Z" transform="translate(-602.971 -529.795)" fill="#2f2e41"/>
  <path id="Path_80" data-name="Path 80" d="M775.8,575.9,761.7,581.716a5.307,5.307,0,0,0-3.373,4.4l-4.262,26.407,6.832.133,4.318-22.193,9.323-4.764-7.144,5.164a5.949,5.949,0,0,0-1.447,2.434l-4.2,19.6h7.535l4.283-15.673,18.586-13.232Z" transform="translate(-585.821 -443.092)" fill="#111019"/>
  <path id="Path_81" data-name="Path 81" d="M846.347,489.167l-8.931,1.354s-5.243,2.937-5.243,4.43-2.087,22.888-2.087,22.888-1.857,1.431,5.393,3.949,8.551,5.995,8.551,5.995l.552,2.9,8.306-3.644,1.394-24.878,1.591-9.687-5.376-3.747Z" transform="translate(-642.133 -383.925)" fill="#cbcbcb"/>
  <ellipse id="Ellipse_14" data-name="Ellipse 14" cx="6.385" cy="7.974" rx="6.385" ry="7.974" transform="translate(193.998 87.127)" fill="#ffb7b7"/>
  <path id="Path_82" data-name="Path 82" d="M860.515,427.243l.127-.854-1.71-.4s-2.418-2.77-5.193-.762-3.991,3.051-3.991,3.051l-1.28,1.471.962.665-1.216,1.044,1.026.238-.874,1.123,1.441,3.648s.269-3.251,2.321-2.776,4.954-2.386,4.954-2.386l4.431,5.888s.037-2.63,1.235-2.359C862.747,434.836,864.213,428.542,860.515,427.243Z" transform="translate(-655.756 -340.329)" fill="#2f2e41"/>
  <path id="Path_83" data-name="Path 83" d="M901.08,530.517a2.655,2.655,0,0,1,1.932-1.464,2.368,2.368,0,0,1,2.139.91l8.453-5.384-.548,6.12-7.943,4.174a2.3,2.3,0,0,1-3.565.058,3.964,3.964,0,0,1-.466-4.415Z" transform="translate(-694.681 -408.256)" fill="#ffb7b7"/>
  <path id="Path_84" data-name="Path 84" d="M810.481,338.362l2.073-.468,11.063,6.18.753,6.056-6.635,2.178-3.472-5.577-5.081,1.761-3-5.638Z" transform="translate(-598.814 -229.34)" fill="#cbcbcb"/>
  <path id="Path_101" data-name="Path 101" d="M.709.157l14-.064a.591.591,0,0,1,.649.519l-.027,4.757a.605.605,0,0,1-.655.525l-14,.064a.591.591,0,0,1-.649-.519L.054.682A.605.605,0,0,1,.709.157Z" transform="translate(201.372 130.662) rotate(-88.69)" fill="#3f3d56"/>
  <ellipse id="Ellipse_15" data-name="Ellipse 15" cx="0.912" cy="1.139" rx="0.912" ry="1.139" transform="translate(203.801 118.755)" fill="#fff"/>
  <path id="Path_85" data-name="Path 85" d="M849.057,547.488a2.094,2.094,0,0,0-2.155.058,3.141,3.141,0,0,0-1.348,2.1l-9.011,1.074,2.951,4.576,8.1-1.721a2.589,2.589,0,0,0,2.894-2.234,3.488,3.488,0,0,0-1.435-3.852Z" transform="translate(-647.087 -423.621)" fill="#ffb7b7"/>
  <path id="Path_86" data-name="Path 86" d="M738,352.222l-.472,10.956,1.771.7-.761,7.637-4.547.858,1.9-19.773Z" transform="translate(-545.193 -239.065)" fill="#cbcbcb"/>
  <path id="Path_87" data-name="Path 87" d="M799.037,512.98l-.177,3.768-.069,1.471v.019l-.216,4.546-.008.19-.466,9.879H779.65a5.719,5.719,0,0,0-4.258,2.042,6.908,6.908,0,0,0-.541.7q-.156.231-.293.482a7.11,7.11,0,0,0-.324.639,8.167,8.167,0,0,0-.527,1.651,1.252,1.252,0,0,0-.031.141,8.468,8.468,0,0,0-.141,1.06l.057,2.863.008.447.021,1.118.118,6.239.072,3.714.067,3.5c-1.69-.051-4.594,1.067-6.274,8.559-.37,1.651-.669,3.094-.916,4.35q-.189.959-.342,1.777c-.172.932-.314,1.732-.437,2.416-.136.771-.25,1.391-.355,1.889-.368,1.69-.661,1.905-1.59,1.468a8.463,8.463,0,0,0-1.893-.414c-1.906-.283-4.856-.543-7.7-.752-.118-.006-.234-.016-.352-.026-4.056-.3-7.789-.482-7.789-.482v2.917l17.733,1.992s1.829,1.025,3.238-2.464a12.468,12.468,0,0,0,.491-1.481q.135-.477.255-1.031l.381-1.725c.116-.524.234-1.051.35-1.571.764-3.431,1.5-6.653,1.932-8.507a5.145,5.145,0,0,1,2.336-3.425,2.427,2.427,0,0,1,1.265-.344l2.094-.116-.211-5.706h7.966c.126-.328.26-.652.4-.967a19.976,19.976,0,0,1,.975-1.953H776l-.1-3.158-.172-5.452-.008-.215-.041-1.295-.039-1.23a4.645,4.645,0,0,1,.072-.906c.021-.112.046-.241.08-.376a5.716,5.716,0,0,1,.628-1.6,3.683,3.683,0,0,1,.718-.887,2.306,2.306,0,0,1,.2-.164,2.634,2.634,0,0,1,1.307-.488,1.641,1.641,0,0,1,.252-.01h18.731v7.283q.486-.039.98-.039c.17,0,.337,0,.5.01.208.01.417.023.622.039V536l.741-13.162.424-7.514h7.019l0-2.345Z" transform="translate(-580.004 -400.383)" fill="#3f3d56"/>
  <path id="Path_88" data-name="Path 88" d="M277.064,474.9a3.415,3.415,0,0,0,1.456-2.285,4.15,4.15,0,0,0-.468-2.861l2.066-25.232h-4.465l-1.642,24.638a4.1,4.1,0,0,0-.515,4.564,2.478,2.478,0,0,0,3.568,1.176Z" transform="translate(-228.524 -353.921)" fill="#9f616a"/>
  <ellipse id="Ellipse_16" data-name="Ellipse 16" cx="6.318" cy="7.891" rx="6.318" ry="7.891" transform="translate(46.322 60.899)" fill="#9f616a"/>
  <path id="Path_89" data-name="Path 89" d="M292.529,434.6a1.229,1.229,0,0,1-1.114-1.06,91.787,91.787,0,0,0-3.914-11.543,11.748,11.748,0,0,1-.195-7.817,8.7,8.7,0,0,1,4.542-5.384h0a6.279,6.279,0,0,1,5.946.449,9.254,9.254,0,0,1,3.886,5.639,58.587,58.587,0,0,1,1.434,15.772,1.4,1.4,0,0,1-.909,1.338l-9.429,2.572A.93.93,0,0,1,292.529,434.6Z" transform="translate(-238.699 -329.298)" fill="#6c63ff"/>
  <path id="Path_90" data-name="Path 90" d="M244.767,528.9h3.154l1.5-15.192h-4.654Z" transform="translate(-181.807 -348.669)" fill="#9f616a"/>
  <path id="Path_91" data-name="Path 91" d="M341.641,724.593v-5.1h6.21c2.186,0,3.958,2.213,3.958,4.943v.16Z" transform="translate(-279.486 -540.548)" fill="#2f2e41"/>
  <path id="Path_92" data-name="Path 92" d="M122.177,516.979l2.763,1.9,7.175-12.41-4.079-2.8Z" transform="translate(-90.75 -341.856)" fill="#9f616a"/>
  <path id="Path_93" data-name="Path 93" d="M222.622,713.181l-8.91-6.118,1.969-4.473,5.442,3.737a5.639,5.639,0,0,1,1.562,6.713Z" transform="translate(-184.462 -529.078)" fill="#2f2e41"/>
  <path id="Path_94" data-name="Path 94" d="M261.951,546.195a1.281,1.281,0,0,1-1.147-1.26l-3.944-37.957a.752.752,0,0,0-.518-.686.61.61,0,0,0-.683.4l-16.436,37.244a1.07,1.07,0,0,1-1.426.653l-3.583-1.7a1.318,1.318,0,0,1-.649-.774,1.78,1.78,0,0,1-.011-1.121l11.386-34.933a1.341,1.341,0,0,0,.058-.277c1.542-14.908,5.466-22.489,6.632-24.457a1.353,1.353,0,0,0,.128-1.019l-.16-.6a1.728,1.728,0,0,1,.223-1.406c4.2-5.976,11.523-2.715,11.6-2.682l.037.017.023.039c8.21,14.063,5.174,59.737,4.483,68.751a1.317,1.317,0,0,1-1.063,1.3l-4.855.467C262.01,546.194,261.98,546.195,261.951,546.195Z" transform="translate(-199.138 -374.4)" fill="#111019"/>
  <path id="Path_95" data-name="Path 95" d="M352.022,399.652a4.173,4.173,0,0,0-.062.527l-11.05,7.962-2.686-1.931-2.863,4.682,4.489,4a1.741,1.741,0,0,0,2.469-.075l11.394-11.227a2.364,2.364,0,0,0,2.974-.949,4.052,4.052,0,0,0,.342-3.81,2.6,2.6,0,0,0-2.732-1.747,3.017,3.017,0,0,0-2.275,2.573Z" transform="translate(-274.821 -321.697)" fill="#9f616a"/>
  <path id="Path_96" data-name="Path 96" d="M324.866,418.951l-3.571,5.781a1.111,1.111,0,0,1-.853.56,1.048,1.048,0,0,1-.9-.441l-4.043-5.243a4.715,4.715,0,0,1-.568-5.634,2.81,2.81,0,0,1,4.511-.71l5.071,3.541a1.465,1.465,0,0,1,.569.972,1.729,1.729,0,0,1-.218,1.173Z" transform="translate(-259.146 -332.13)" fill="#6c63ff"/>
  <path id="Path_97" data-name="Path 97" d="M282.326,435.761l-5.753-1.3a1.2,1.2,0,0,1-.791-.688,1.766,1.766,0,0,1-.1-1.2l1.865-6.9c.321-2.181,2-3.624,3.742-3.224s2.9,2.493,2.581,4.674l-.182,7.252a1.6,1.6,0,0,1-.429,1.078A1,1,0,0,1,282.326,435.761Z" transform="translate(-230.447 -338.897)" fill="#6c63ff"/>
  <path id="Path_98" data-name="Path 98" d="M242.88,350.4c1.624,1.388,3.756,2.815,5.414,1.337a4.367,4.367,0,0,0,.99-4.345c-.794-2.836-2.976-4.085-5.062-5.042-2.712-1.244-5.666-2.234-8.465-1.343a7.437,7.437,0,0,0-4.769,7.83c.406,2.857,2.565,5.235,2.258,8.112-.308,2.9-2.915,4.419-5.217,4.937s-4.877.684-6.531,2.749c-2.11,2.634-1.583,7.342.4,10.123s4.982,4.042,7.885,4.9c3.847,1.135,8.007,1.732,11.66-.152a11.156,11.156,0,0,0,5.438-11.713,17.625,17.625,0,0,0-2.518-5.36,16.253,16.253,0,0,1-2.437-5.41,6.742,6.742,0,0,1,.813-4.92,1.708,1.708,0,0,0,.153-1.666Z" transform="translate(-189.24 -283.427)" fill="#2f2e41"/>
  <path id="Path_99" data-name="Path 99" d="M198.259,736.142h-98a.329.329,0,0,1,0-.642h98a.329.329,0,0,1,0,.642Z" transform="translate(-100 -551.415)" fill="#cbcbcb"/>
  <path id="Path_100" data-name="Path 100" d="M815.259,736.142h-98a.329.329,0,0,1,0-.642h98a.329.329,0,0,1,0,.642Z" transform="translate(-558.293 -551.415)" fill="#cbcbcb"/>
</svg>
