<svg xmlns="http://www.w3.org/2000/svg" width="27.888" height="23.5" viewBox="0 0 27.888 23.5">
  <g id="repeat" transform="translate(0 -45.8)">
    <g id="Group_3" data-name="Group 3" transform="translate(0 45.8)">
      <path id="Path_166" data-name="Path 166" d="M24.831,45.8H3.063A3.125,3.125,0,0,0,0,48.974V62.468a3.121,3.121,0,0,0,3.063,3.174H9.381a.726.726,0,0,0,0-1.451H3.063a1.7,1.7,0,0,1-1.668-1.729V48.974a1.7,1.7,0,0,1,1.668-1.729H24.831A1.7,1.7,0,0,1,26.5,48.974V62.468A1.7,1.7,0,0,1,24.831,64.2h-9.2l2.34-2.425a.738.738,0,0,0,0-1.021.684.684,0,0,0-.991,0l-3.529,3.658a.738.738,0,0,0,0,1.021l3.529,3.658a.677.677,0,0,0,.985,0,.738.738,0,0,0,0-1.021l-2.34-2.425h9.2a3.121,3.121,0,0,0,3.063-3.174V48.974A3.116,3.116,0,0,0,24.831,45.8Z" transform="translate(0 -45.8)" fill="#6c63ff"/>
    </g>
  </g>
</svg>
