<svg xmlns="http://www.w3.org/2000/svg" width="24.902" height="45.494" viewBox="0 0 24.902 45.494">
  <path id="microphone-svgrepo-com" d="M145.12,7.108H152.9V2.843A2.987,2.987,0,0,0,149.789,0H131.113A2.987,2.987,0,0,0,128,2.843V7.108h7.782a1.494,1.494,0,0,1,1.556,1.422,1.494,1.494,0,0,1-1.556,1.422H128v5.687h7.782a1.428,1.428,0,1,1,0,2.843H128v5.687h7.782a1.428,1.428,0,1,1,0,2.843H128v4.265a2.987,2.987,0,0,0,3.113,2.843h3.113a2.987,2.987,0,0,0,3.113,2.843v5.687a3.125,3.125,0,0,0,6.225,0V36.964a2.987,2.987,0,0,0,3.113-2.843h3.113a2.987,2.987,0,0,0,3.113-2.843V27.012H145.12a1.428,1.428,0,1,1,0-2.843H152.9V18.482H145.12a1.428,1.428,0,1,1,0-2.843H152.9V9.952H145.12a1.494,1.494,0,0,1-1.556-1.422A1.494,1.494,0,0,1,145.12,7.108Z" transform="translate(-128)" fill="#6c63ff"/>
</svg>
