<svg xmlns="http://www.w3.org/2000/svg" width="289.386" height="272.894" viewBox="0 0 289.386 272.894">
  <g id="Introduction" transform="translate(-30.233 -48.399)" style="mix-blend-mode: darken;isolation: isolate">
    <g id="variations" transform="translate(30.233 48.399)">
      <g id="images" transform="translate(0)">
        <g id="a-person_bust" data-name="a-person/bust">
          <g id="body_Paper" data-name="body/Paper" transform="translate(0 92.301)">
            <path id="_-Background" data-name="ðŸŽ¨-Background" d="M253.655,48.869c-3.185-8.232-6.113-11.722-11.771-14.583-5.29-2.676-13.015-4.924-24.285-6.566-11.739-1.368-12.071-5.434-15.014-11.969-.859-1.965-5.114-2.487-6.95-1.071a7.992,7.992,0,0,0-.809-.511c.251-.937-1.8-3.622-1.728-4.519C193.812.3,189.22-4.4,177.76-6.148c-2.492-.38-19.419-.6-21.849-.156-10.623,1.957-21.08,8.172-19.48,15.659a22.522,22.522,0,0,1-11.743,5.613q-17.173,1.453-34.348,2.568c-22.417,2.343-43.434,10.251-57.8,21.784-1.325,1.065-1.708,2.51-.538,3.645-.916,2.615-6.072,8.957-2.015,10.75C23.316,64.348,7.965,84.9,7.934,90.775c-.118,24.669,3.88,56.78,40.407,70.432,1.462.958,1.672,2.018,2.305,3.444,1.606,4.49,7.438,7.7,13.821,7.438,31.446.466,61.9-2.09,93.35-2.215,13.868-.054,30.546,1.325,42.592,2.245a130.632,130.632,0,0,0,35.77-2.245,5.922,5.922,0,0,0,4.944,1.325c11.986-1.587,21.677-6.509,30.118-11.889,2.58-3.127,12.654-12.038,8.65-15.139,3.63-10.227,3.441-21.216-3.009-30.954.915-1.785-.752-3.747,0-5.59.545-1.334,1.939-1.886,2.641-3.207.987-1.859-.086-4.353-1.2-6.249-.457-.945.839-1.963,1.2-2.928,1.705-4.55-2.2-4.149-5.017-7.191.042-.009.775-2.181.771-2.17.431-1.55-.65-3.537-1.591-4.831a3.915,3.915,0,0,0-3.357-1.322,68.316,68.316,0,0,1,4.948-8.634,87.449,87.449,0,0,1,12.152-15.014c1.932-1.944-.662-4.2-3.786-4.329A281.3,281.3,0,0,1,253.655,48.869Z" transform="translate(0.165 6.552)" fill="#fff" fill-rule="evenodd"/>
            <path id="_-Ink" data-name="ðŸ–-Ink" d="M230.049,87.309a67.251,67.251,0,0,0-13.1-1.868c2.417-.275,4.839-.541,7.283-.677a7.371,7.371,0,0,1,4.566.755,8.361,8.361,0,0,1,1.818,1.943C230.43,87.408,230.24,87.357,230.049,87.309Zm44.514-9.883A76.033,76.033,0,0,0,254.826,80.6c-2.513.779-4.791,1.9-5.458,3.755a5.426,5.426,0,0,0-.074,2.876c.135.723.168,1.646,1.135,2.136a2.547,2.547,0,0,0,.525.192,56.711,56.711,0,0,0-6.343,2.287,9.883,9.883,0,0,0-4.364,3.22c-.067-.149-.135-.287-.2-.419A13.428,13.428,0,0,0,233.2,88.37c.591-.173,1-.582.809-1.147-.794-2.36-4.148-4.411-7.935-4.265a46.6,46.6,0,0,0-12.351,2.379c-1.367-.019-2.733-.007-4.08.032-.232,0-.222.21,0,.226,1.094.09,2.188.19,3.282.307,2.6.271,5.192.614,7.728,1.04a68.579,68.579,0,0,1,9.033,1.919c5.515,1.737,8.926,6.276,8.226,10.226-.115.648-.5,2.606-1.885,2.4-1.167-.171-1.631-1.756-2.041-2.343-1.094-1.559-3.064-2.577-5.428-3.266-2.775-.811-5.747-1.359-8.625-2q-2.442-.544-4.892-1.086A13.512,13.512,0,0,0,210,92.174c-1.075.158-1.2.991-.6,1.469a9.111,9.111,0,0,0,3.6,1.242l5.231,1.184c2.692.609,5.515,1.123,8.139,1.868l-.082.122c-.215-.039-.465.1-.424.27.394,1.576.942,3.4.333,4.976a4,4,0,0,1-4.364,2.27.586.586,0,0,0,.239-.884c-.869-1.208-12.257-5.976-13.273-4.206-.034.063.071.109.154.1.865-.117,2.314.842,3.007,1.147,1,.439,2.016.867,3.006,1.318q1.623.738,3.169,1.542a9.372,9.372,0,0,0,2.348,1.067,1.635,1.635,0,0,0-1.037.789,3.9,3.9,0,0,1-2.633,2.136c-1.472.428-3.132.158-4.683.263a12.055,12.055,0,0,0-5.5,1.724c-3.233,1.963-4.855,5.422-9.377,6.349-2.7.553-5.7.2-8.434-.046a48.244,48.244,0,0,0-9.1-.21,43.441,43.441,0,0,0-8.417,1.75,48.248,48.248,0,0,0-7.545,2.745,29.249,29.249,0,0,1-1.278-2.778,22.365,22.365,0,0,1-1.39-6.788,36.856,36.856,0,0,1,.375-6.539c.143-1.084.368-2.163.51-3.246.037-.273.112-.565.169-.857,3.994-1.532,8.189-2.706,12.418-3.914.012,0,.023-.008.034-.01.131-.039.259-.075.39-.112a.055.055,0,0,0-.014-.015A2.215,2.215,0,0,0,176,96.164a43.267,43.267,0,0,0,14.989-10.4,35.646,35.646,0,0,1,5.208-5.109,17.822,17.822,0,0,1,8.111-3.12,114.276,114.276,0,0,1,11.64-1.152c2.131-.109,4.513-.28,6.836-.273a27.45,27.45,0,0,1,4.658.358,10,10,0,0,1,4.765,2.525c1.293,1.033,2.577,2.068,3.784,3.144a32.711,32.711,0,0,1,3.158,3.18,17.487,17.487,0,0,1,1.52,2.048,4.83,4.83,0,0,1,.45.789c.094.261-.078.536.371.536-1.855.017-1.835,1.943.007,1.873,7.215-.273-3.121-9.43-4.63-10.706-2.14-1.807-4.346-4.165-7.77-5-.048-.012-.1-.024-.149-.034a14.02,14.02,0,0,0,2.536-2.1,7.011,7.011,0,0,0,1.956-2.565c.161-.582-.952-.913-1.481-.4a15.14,15.14,0,0,0-1.711,2.5c-.585.828-1.3,1.61-1.858,2.445a25.852,25.852,0,0,0-4.3-.436c1.876-1.651,5.082-4.837,5.469-5.246,1.777-1.895,3.465-3.848,5.08-5.8,1.745-2.119,3.24-4.325,4.912-6.468.947-1.215,1.9-2.44,2.956-3.619a11.445,11.445,0,0,1,1.2-1.176,3.331,3.331,0,0,1,.294-.2c.117-.041.238-.088.3-.112.606-.226.819-.752,1.247-1.086a3.829,3.829,0,0,1,2.511-.609c2.186-.015,4.382.041,6.566.08q4.817.088,9.625.251c.97.034,1.936.068,2.906.107q7,.271,13.973.706c4.114.255,8.228.672,12.345.872a233.535,233.535,0,0,1-18.756,25.221A.907.907,0,0,0,274.563,77.426ZM243.633,99.6a18.727,18.727,0,0,0-2.585.982,6.561,6.561,0,0,0,.131-1.841A5.587,5.587,0,0,0,243.633,99.6ZM282.014,84.8a.208.208,0,0,0-.154.068c-1.243,1.668-.723,3.531,1.309,4.839,1.064.682,3.382,1.451,3.307,2.572-.064.906-1.58,1.666-2.229,2.413A1.75,1.75,0,0,0,283.9,96.9c.617.967,2.344,1.351,2.936,2.3.75,1.205-.468,2.659-1.323,3.709-.794.972-1.821,1.943-2.5,2.971a50.457,50.457,0,0,0-12.168,6.288c-3.848,2.618-7.148,5.7-13.259,5.621a1.806,1.806,0,0,0-1.351.491c-1.7.052-3.406.074-5.107.078q-4.485.016-8.966-.07a3.942,3.942,0,0,1-.067-1.5c-.037-1.279-.055-2.555-.138-3.834-.023-.355-.044-.714-.067-1.069,1.075,1.264,3.174,1.839,5.563,1.751,3.844-.146,7.71-.555,11.517-.923,2-.192,4-.412,6-.645,1.642-.19,3.956-.141,5.1-1a.374.374,0,0,0-.138-.7,6.262,6.262,0,0,0-3.1,0q-2.28.288-4.573.546-4.4.5-8.822.908c-1.679.153-3.362.3-5.043.424-1.468.1-3.124.241-4.309-.477-2.387-1.452-1.048-3.885.461-5.351a.066.066,0,0,0,.02-.08c1.424-.217,2.842-.47,4.259-.648,2.724-.341,5.465-.628,8.212-.884,5.641-.524,11.32-.87,16.993-1.218,1.4-.088,1.419-1.524,0-1.439-8.148.485-16.337.945-24.377,1.965q-3.024.38-6.006.864a19.662,19.662,0,0,1-2.933.395c-.06,0-.121,0-.181,0-1.929-.039-2.209-1.113-1.149-2.006.131-.11.266-.22.4-.324a28.814,28.814,0,0,1,6.612-3.424c2.694-.239,5.38-.77,8.017-1.159q9.767-1.447,19.538-2.891c1.277-.19.734-1.466-.544-1.279L258.58,96.473l-7.238,1.067c-1.445.212-3.252.638-4.953.792A10.1,10.1,0,0,1,244,98.3c-2.373-.365-2.491-2.292-1.468-3.437,1.146-1.286,3.311-2.089,5.233-2.818,3.33-1.264,6.875-2.172,10.336-3.22l1.842-.263c3.575-.511,7.659-.762,11.023-1.7,1.007-.278.456-1.311-.541-1.3a64.765,64.765,0,0,0-7.893,1q-4.141.585-8.286,1.164a14.621,14.621,0,0,1-2.165.3c-.158-.049-.215-.4-.266-.638a5.3,5.3,0,0,1-.11-2.35c.406-1.732,2.626-2.545,4.875-3.21a74.963,74.963,0,0,1,15.956-2.774c1.259-.085,2.518-.139,3.784-.166,1.486-.029,2.711-.2,3.465.753A13.013,13.013,0,0,1,282.014,84.8Zm-6.951,54.393c-1.091-2.452-.794-5.07-1.541-7.572a29.993,29.993,0,0,0-1.486-3.829,10.788,10.788,0,0,1-1.325-3.162c-.005-.071.122-.112.211-.079a9.692,9.692,0,0,1,3.6,2.783,16.516,16.516,0,0,1,2.5,3.661c1.289,2.551,2.348,5.628.686,8.2C277.21,139.954,275.47,140.107,275.063,139.189Zm-33.7-32.477c.922-.058,1.844-.173,2.764-.307a7.817,7.817,0,0,0-2.509,2.311c-.083-.67-.188-1.337-.326-2A.634.634,0,0,0,241.358,106.711ZM232.5,157.75a29.609,29.609,0,0,1-4.187-2.678c-1.357-.894.762-2.272,2.119-1.377a25.922,25.922,0,0,0,3.58,2.373c.667.3.975.847.539,1.333A2.027,2.027,0,0,1,232.5,157.75Zm-9.063-28.335c2.967-.834,5.885-1.742,8.99-2.343,1.855-.36,2.64,1.521.8,1.878-2.86.553-5.541,1.379-8.274,2.147C223.2,131.589,221.673,129.91,223.438,129.415Zm-31.33-.583c-.725-1.164,2.176-1.665,2.89-.519.823,1.321,1.766,2.608,2.589,3.928.725,1.163-2.176,1.665-2.89.517C193.874,131.438,192.931,130.152,192.108,128.832Zm-30.924,23.237a2.053,2.053,0,0,1-2.05.35c-.638-.249-1.027-.909-.538-1.333a43.4,43.4,0,0,1,4.55-3.564c1.357-.894,3.475.484,2.119,1.378A38.867,38.867,0,0,0,161.184,152.069ZM156.763,21.681a26.812,26.812,0,0,1,3.756,2.116c1.366.888-.753,2.265-2.12,1.377a22.448,22.448,0,0,0-3.149-1.812c-.67-.3-.971-.851-.538-1.333A2.024,2.024,0,0,1,156.763,21.681Zm44.99,31.352a5.8,5.8,0,0,0-1.523,3.156c-.046,1.253-3.043,1.254-3,0a7.512,7.512,0,0,1,1.931-4.139C200.027,50.927,202.611,51.915,201.753,53.034Zm16.507-25.18c1.61-.7,3.11.99,1.513,1.682l-3.885,1.683c-1.61.7-3.109-.99-1.513-1.682Zm-71.6,44.025c-.275,1.238-3.163.708-2.89-.518A31.328,31.328,0,0,1,145.5,65.75c.518-1.208,3.408-.692,2.89.518A31.291,31.291,0,0,0,146.662,71.879ZM136.154,94.2c-1.929-.027-1.929-1.975,0-1.948a35.2,35.2,0,0,1,5.146.6c1.873.3,1.074,2.183-.8,1.879A29.737,29.737,0,0,0,136.154,94.2Zm-3.879,44.958c-.663.21-1.343.4-2.013.6l-4.023,1.2q-4.189,1.25-8.372,2.509c-5.582,1.679-11.207,3.3-16.8,4.962q-8.559,2.541-17.081,5.137c-2.678.812-5.376,1.6-8.069,2.388-2.3.676-5.149,1.859-7.676,1.97-.13.006-.173-.1-.1-.156a15.914,15.914,0,0,1,3.733-1.576c1.282-.469,2.588-.91,3.888-1.357,2.71-.933,5.423-1.859,8.16-2.76q8.21-2.7,16.442-5.373c5.594-1.822,11.181-3.654,16.824-5.41q3.985-1.241,7.977-2.474l4.326-1.333c.623-.191,1.24-.4,1.877-.57a21.254,21.254,0,0,1,2.362-.321c1.424-.228,2.04.948.947,1.461A16.6,16.6,0,0,1,132.275,139.154Zm-20.008,19.977c-.308-.486.336-1.076,1.047-1.2a1.773,1.773,0,0,1,1.843.68,11.912,11.912,0,0,0,3.5,3.5c1.346.9-.772,2.278-2.119,1.378A14.435,14.435,0,0,1,112.267,159.131Zm-14.72-31.273c-1.366-.887.753-2.265,2.119-1.377l3.884,2.525c1.366.888-.754,2.265-2.119,1.377ZM57.7,123.742c-2.792.532-6.049,1.022-7.953,2.571-.093.075-.249-.022-.193-.1,2.437-3.284,9.427-4.436,14.267-5.587,3.423-.813,6.935-1.489,10.477-2.093-.354-2.626.622-5.441.962-8.055.362-2.791.657-5.588.809-8.387a82.209,82.209,0,0,0,.048-8.586c-.144-2.846-.712-5.657-.961-8.493-.024-.274.563-.287.69-.061a25.738,25.738,0,0,1,2.578,8.322,44.523,44.523,0,0,1,.594,8.585,88.339,88.339,0,0,1-.693,8.853c-.172,1.4-.372,2.792-.56,4.188a17.713,17.713,0,0,1-.545,3.153q3.2-.512,6.411-.976c6.806-1,13.64-1.926,20.417-3,3.327-.53,6.606-1.164,9.918-1.728,3.118-.531,6.41-1.174,9.611-1.411,1.143-.085,1.288.931.532,1.276a48.448,48.448,0,0,1-9.064,2.68c-3.016.667-6.152,1.147-9.244,1.642-6.448,1.03-12.957,1.874-19.456,2.752s-12.992,1.747-19.409,2.829C63.841,122.635,60.761,123.157,57.7,123.742ZM42.4,71.619c-1.669.637-3.175-1.048-1.512-1.682a65.57,65.57,0,0,1,6.831-2.062c1.794-.467,2.565,1.418.8,1.879A58.517,58.517,0,0,0,42.4,71.619ZM36.353,144c-1.673.631-3.181-1.053-1.512-1.681,2.343-.884,4.909-1.473,7.337-2.245,1.727-.55,3.245,1.132,1.512,1.682C41.262,142.53,38.7,143.119,36.353,144Zm-2.718-41.088a21.638,21.638,0,0,0,5.812,1.994c1.775.457,1,2.341-.8,1.879a26.217,26.217,0,0,1-7.135-2.5C30.114,103.426,32.237,102.051,33.636,102.914Zm17.9-55.8c1.778.453,1,2.337-.8,1.879-1.992-.508-4.05-.895-6.042-1.4-1.778-.453-1-2.337.8-1.879C47.482,46.219,49.54,46.606,51.532,47.114ZM83.1,24.95c1.89-.207,2.694,1.671.8,1.879a51.228,51.228,0,0,0-6.905,1.122c-1.8.453-2.577-1.431-.8-1.879A51.259,51.259,0,0,1,83.1,24.95ZM93.535,78.914c-1.733-.554-.212-2.233,1.512-1.682a33.846,33.846,0,0,0,5.684,1.3c1.889.262,1.084,2.139-.8,1.879A38.18,38.18,0,0,1,93.535,78.914Zm9.852-30.4c1.866-.332,2.655,1.548.8,1.879-3.269.582-6.634.885-9.927,1.4-1.876.3-2.67-1.584-.8-1.879C96.753,49.4,100.119,49.1,103.387,48.516Zm41.8-9.539c1.9.228,1.089,2.106-.8,1.879a51.073,51.073,0,0,0-6.076-.246c-1.932,0-1.928-1.949,0-1.948A57.531,57.531,0,0,1,145.183,38.977ZM281.5,49.156q-7.344-.457-14.711-.731L266.1,48.4a.819.819,0,0,0-.094-.1,21.655,21.655,0,0,1-3.805-4.788,22.42,22.42,0,0,0-3.431-4.829,22.581,22.581,0,0,0-6.579-4.165,31.136,31.136,0,0,0-4.281,2.3c-1.378.88-3.5-.5-2.119-1.378a33.454,33.454,0,0,1,3.717-2.05c-1.516-.6-3.062-1.161-4.57-1.721q-8.48-3.145-17.349-5.808c-2.747-.826-5.525-1.559-8.324-2.3-1.507-.4-2.993-.913-4.5-1.376a1.868,1.868,0,0,0-1.027-1.922,9.263,9.263,0,0,0-1.789-.694c-.161-.037-.259-.059-.3-.071.035,0,.131.024.293.058.383.115.413.08.09-.1-.02-.394-1.215-1.227-1.488-1.634-.95-1.4-1.247-2.872-2.653-4.143-1.936-1.751-5.189-2.413-8.219-1.819-.314-2.107-.4-4.306-1.617-6.186a.135.135,0,0,0-.191-.017c-1.273,1.41-1.383,2.981-1.481,4.608a17.882,17.882,0,0,0,.3,4.605c-.193.1-.392.19-.6.28a16.99,16.99,0,0,1-3.1.97,36.214,36.214,0,0,1-6.451.711,119.686,119.686,0,0,1-16.993-.823c-5.608-.636-14.206-1.59-19.2-3.414-3.293-1.2-6.331-2.672-9.411-4.094,1.117-2.338,1.4-4.851.278-6.826-.135-.236-.7-.28-.813,0-.7,1.885-.91,3.78-1.847,5.643-.015.027-.03.056-.045.083q-.438-.193-.877-.382a1.985,1.985,0,0,0-2,.341c-6.47,6.627-16.716,7.007-27.475,8.19-11.775,1.3-23.609,2.693-34.931,5.228C62.4,23.2,52.05,26.734,43.853,32.009a58.88,58.88,0,0,0-5.229,3.8,39.722,39.722,0,0,1,4.708.649c1.837.375,1.047,2.256-.8,1.879a39.925,39.925,0,0,0-6.046-.709,84.95,84.95,0,0,0-13.668,16.1A88.378,88.378,0,0,0,8.772,87.1c1.185-.461,2.391-.9,3.626-1.31,1.717-.568,3.232,1.114,1.513,1.682q-2.864.947-5.56,2.082a79.4,79.4,0,0,0-.9,15.148,88.426,88.426,0,0,0,8.6,35.951,49.832,49.832,0,0,0,11.936,16.008,39.333,39.333,0,0,0,8.617,5.733,40.194,40.194,0,0,0,5.1,2.087c2.311.77,5.323,1.023,7.316,2.112a4.578,4.578,0,0,1,1.543,1.363,4.905,4.905,0,0,0,.18,3.042,1.415,1.415,0,0,0,.955.7c.007.088.007.173.007.256,0,.038.09.048.1.009.019-.076.037-.151.056-.228a2.2,2.2,0,0,0,.457.046c5.691.014,11.388-.076,17.087-.2-.441-.877-.918-1.747-1.376-2.624-.622-1.193,2.273-1.7,2.89-.519.536,1.026,1.1,2.043,1.6,3.072,6.105-.147,12.209-.325,18.3-.455,12.958-.281,25.913-.373,38.875-.551,20.129-.278,40.4-.846,60.565-.289.7-.962,1.479-1.9,2.218-2.851.872-1.12,3.458-.133,2.587.983-.514.659-1.046,1.31-1.553,1.968,4.084.138,8.162.32,12.234.569,6.946.423,13.824,1.175,20.761,1.643a118.682,118.682,0,0,0,20.955-.365,2.719,2.719,0,0,0,2.307-1.244.047.047,0,0,0,.027-.015,5.015,5.015,0,0,1,2.438-1.151,21.151,21.151,0,0,1,3.054-.492c1.145-.112,2.307-.122,3.454-.214.966-.081,1.91-.2,2.853-.346a40.227,40.227,0,0,0,4.912-1.062,20.263,20.263,0,0,0,3.852-1.588,30.82,30.82,0,0,0,6.467-4.22,36.266,36.266,0,0,0,3.038-2.832c1.619-1.7,3-3.466,4.391-5.246a19.23,19.23,0,0,0,1.39-1.619,46.621,46.621,0,0,0-8.361-.977c-1.931-.021-1.931-1.968,0-1.949a52.931,52.931,0,0,1,9.554,1.136c.152-.262.3-.525.433-.793a11.277,11.277,0,0,0,.933-1.709c.149-.264.3-.527.449-.789q.508-1.367,1.016-2.738a26.577,26.577,0,0,0,1.607-4.447,20.15,20.15,0,0,0,.757-2.993,37.2,37.2,0,0,0,.982-7.35,33.4,33.4,0,0,0-.45-4.554,23.363,23.363,0,0,0-.539-3.066,33.925,33.925,0,0,0-1.177-4.5q-.6-1.511-1.2-3.024A47.535,47.535,0,0,0,286.1,108.2a1.166,1.166,0,0,0-.683-.407c-.172,0-.411.1-.333.236a.429.429,0,0,1,.023.039c-.078-.114-.154-.231-.232-.346a.812.812,0,0,0-.532-.319.234.234,0,0,0-.037,0,.846.846,0,0,0,.149-.092,19.516,19.516,0,0,0,3.181-3.595,7.719,7.719,0,0,0,1.768-3.149,2.721,2.721,0,0,0-1.014-2.742c-1.08-.9-3.11-1.327-1.983-2.633,1.282-1.486,3.165-2.774,1.289-4.462-.956-.86-2.468-1.332-3.593-2.08a3.743,3.743,0,0,1-1.874-3.2.18.18,0,0,0,.222-.058c1.087-2.133.3-4.476-.812-6.554-.608-1.127-1.892-1.437-3.387-1.493a299.236,299.236,0,0,0,17.929-25.114q.269-.42.532-.84c.262-.419-.293-.976-.933-1.069C291.114,49.66,286.25,49.448,281.5,49.156Z" transform="translate(-7.394 7.775)" fill="#111019" fill-rule="evenodd"/>
          </g>
          <g id="head_Medium-Bangs-2" data-name="head/Medium-Bangs-2" transform="translate(55.759)">
            <path id="_-Background-2" data-name="ðŸŽ¨-Background" d="M157.644,33.412A5.685,5.685,0,0,0,153,30.263a14.079,14.079,0,0,0-12.884-7.529C121.281,9.9,97.571,10.5,72.782,13.219,59.7,14.835,46.425,18,36.671,24.249,24.988,31.6,20.439,44.439,29.588,53.74c-7.907,2.824-8.06,9.526-4.679,14.363-4.065,1.874-4.311,6.421.265,7.85a1.979,1.979,0,0,0,.393,1.941A46.065,46.065,0,0,1,17.9,80.883a2.926,2.926,0,0,0-1.96,1.581c-8.017,3.506-28.009,12.074-27.77,18.894-.118,3.558,3.841,5.9,8.652,6.831-2.863,3.814-5.035,8.27-2.3,12.385.757,1.243,6.432,4.9,6.718,4.964.5.286,8.64-2.205,12.6-3.476.767,3.327,6.1,5.07,10.7,3.929,4.362-.876,7.043-3.338,9.794-5.577,3.652,5.31,14.4,5.371,21.339,3.082,6.236-1.921,10.977-5.44,13.617-9.682,14.023,4.576,30.429,5.91,45.665,4.083a5.48,5.48,0,0,0,5.07,1.482c8.1-1.624,17.059-1.715,23.926-5.434,14.314-6.849,15.519-19.475,14.521-30.237-.885-10.731-.11-21.551-3.037-32.167,1.27-3.125,3.383-5.888,5.337-8.824C162.9,39.637,162.86,35.061,157.644,33.412Z" transform="translate(12.196 -10.163)" fill="#fff" fill-rule="evenodd"/>
            <path id="_-Ink-2" data-name="ðŸ–-Ink" d="M24.716,79.155c.844-.141,1.3.615.581.918C20.75,82,16.053,83.722,11.661,85.819A88.807,88.807,0,0,0,.028,92.526l-.4.272c-3.253,2.231-6.855,5.068-6.892,8.359-.028,2.558,2.93,5.349,7.058,5.013,1.555-.127,2.984,1.188,2.442,2.137l-.571,1c-2.3,4.044-4.633,8.626-2.819,12.88l.067.152a2.449,2.449,0,0,0,2.6,1.815,22.709,22.709,0,0,0,4.686-.71,26.743,26.743,0,0,0,8.182-3.34c2.081-1.3,4.739.021,4.459,1.673l-.01.053c-.383,1.855,4.05,2.716,6.065,2.451,3.979-.524,6.816-3.183,9.076-5.208,1.086-.974,3.724-1.356,4.679,0,1.891,2.687,5.789,4.7,10.349,4.781a16.561,16.561,0,0,0,6.647-1.24,12.226,12.226,0,0,0,2.223-1.2l.167-.116a10.8,10.8,0,0,1,2.949-1.534c1.251-.452,2.868.108,2.861,1.094a3.532,3.532,0,0,1-1.892,3.051,18.271,18.271,0,0,1-3.756,1.978A24.232,24.232,0,0,1,49,127.5a21.457,21.457,0,0,1-12.953-4.384c-3.18,2.535-7.125,4.863-12.251,4.8-3.838-.046-7.414-1.378-9.128-3.442a35.731,35.731,0,0,1-7.914,2.549l-.253.05c-4.02.78-8.647,1.09-11.235-1.571-2.43-2.5-2.611-5.956-2.054-8.812a24.943,24.943,0,0,1,3.026-7.361c-3.848-.766-6.835-3.175-7.861-5.772-1.552-3.927,1.459-7.736,5.181-10.654a72.119,72.119,0,0,1,14.259-8.2A68.028,68.028,0,0,1,24.716,79.155ZM156.195,48.437c.009-.109.278-.147.3-.027a244.019,244.019,0,0,1,3.635,25.67q.644,6.536,1.45,13.063c.512,4.174,1.364,8.458,1.171,12.649-.3,6.562-5.082,11.9-12.92,15.736-7.51,3.68-16.828,5.5-25.969,6.268a98.849,98.849,0,0,1-16.006.048c-2.76-.218-5.517-.508-8.221-.944l-1.169-.195c-2.129-.363-4.506-.854-4.81-2.535-.147-.815.5-1.415,1.549-1.824a8.244,8.244,0,0,1,4.34.024c2.372.409,4.77.761,7.194,1a94.366,94.366,0,0,0,15.795.192c8.8-.608,18.091-2.512,24.88-6.444,2.95-1.708,5.515-3.79,6.865-6.262,1.735-3.179,1.478-6.647,1.42-9.977-.135-7.741-.016-15.482-.178-23.223A210.689,210.689,0,0,1,156.195,48.437ZM67.657,12.26a142.006,142.006,0,0,1,31.3-1.7c9.966.5,21.318,1.988,29.457,6.074.395.2.159.574-.33.522-5.442-.578-10.746-1.63-16.164-2.325a150.489,150.489,0,0,0-15.823-1.288c-17.947-.394-37.917,2.317-52.388,9.775-6.786,3.5-11.964,8.2-14.025,13.794-2.113,5.738-.97,11.944,3.274,17.135a1.454,1.454,0,0,1-.916,2.328c-3.869,1.207-6.625,3.882-6.565,6.769a5.791,5.791,0,0,0,1.917,3.9c1.231,1.224,3.1,2.08,4.48,3.223A.947.947,0,0,1,32,71.955c.8.235,1.673.361,2.465.639a.609.609,0,0,1,0,1.2,5.28,5.28,0,0,1-4.813-.981,5.129,5.129,0,0,1-.558-.524,10.315,10.315,0,0,1-3.781-1.318c-2.1.84-2.393,2.71-.585,4.139a9.473,9.473,0,0,0,3.56,1.5l.159.038a8.1,8.1,0,0,1,3.31,1.164,14.645,14.645,0,0,1,1.895-2.152,15.328,15.328,0,0,1,11.216-4.256c3.674.211,6.858,1.965,7.611,4.384.056.179-.349.319-.47.132-1.763-2.74-7.341-2.841-10.663-1.413a12.078,12.078,0,0,0-6.9,7.792,7.5,7.5,0,0,0,2.9,8.643A10.875,10.875,0,0,0,42.4,92.642a11.5,11.5,0,0,0,2.628-.117l.587-.082a6.242,6.242,0,0,1,1.239-.076l.636.057h0l.361.113q.47.141-.085-.077c1.081-.059,1.639.473,1.7,1.057a.392.392,0,0,1,.1.053c4.1,3.346,7.147,7.191,11.5,10.427l1.274.948c3.276,2.429,7.015,5.062,11.464,6.322l.53.146c1.295.364,2.595.863,2.759,1.9.148.932-.954,1.632-2.224,1.85-2.893.494-6.19-1.219-8.309-2.343A46.877,46.877,0,0,1,55,104.083l-.313-.323c-2.6-2.706-5.042-5.792-5.8-9l-.137.148-.023.023a2.945,2.945,0,0,1-.524.372,5.807,5.807,0,0,1-1.855.606,16.494,16.494,0,0,1-3.953.184,18.271,18.271,0,0,1-7.2-1.942c-6.359-3.324-7.109-9.509-4.538-14.528-2.11.336-4.514-.611-6.162-1.422-1.89-.931-3.448-2.274-3.82-3.855s1.13-3.645,3.355-4.25a9.875,9.875,0,0,1-3.792-6.569c-.241-3.652,2.67-7.1,7.139-9.1-4.2-6-5.012-12.968-2.183-19.343C30.811,22.435,49.621,15.361,67.657,12.26Zm-16.01,96.106.052-.111c.448-.978,1.026-2.924,3.218-2.183,2.095.707.757,2.8.025,3.821a6.328,6.328,0,0,1-4.423,2.46,6.7,6.7,0,0,1-4.626-.912,2.94,2.94,0,0,1-.727-.821.926.926,0,0,1-.127-.249.537.537,0,0,1-.211.243,14.236,14.236,0,0,0-2.464,2.25c-.158.188-.658.056-.532-.15.78-1.272.649-3.238,2.388-4.158a3.005,3.005,0,0,1,3.783.772l.041.049C49.229,110.81,51.117,109.448,51.648,108.366Zm-16.671-4.6.16-.148c1.639-1.493,4.4-3.289,7.167-1.9.879.442.912,1.179,0,1.617l-.345.164a13,13,0,0,0-3.3,1.929,15.115,15.115,0,0,1-3.126,2.531c-2.293,1.235-6,1.478-7.987-.186l-.2-.165a5.776,5.776,0,0,1-.512-.486l-.121.112-.033.032-.028.028a9.423,9.423,0,0,1-3.137,2.154,13.1,13.1,0,0,1-7.966.656c-.271-.056-.2-.3.064-.314,3.278-.2,6.471-1.756,7.8-3.755l.151-.224a3.849,3.849,0,0,1,2.477-1.863,4.458,4.458,0,0,1,3.549.671c.744.547.935,1.634,2.277,1.394C33.346,105.753,34.173,104.527,34.977,103.771ZM25.589,90.493a1.69,1.69,0,0,1,2.063.56c.906,2.412-2.856,5.255-6.471,5.33a7.578,7.578,0,0,1-2.65-.418,12.152,12.152,0,0,0-2.1-.886c-.906-.121-1.709.683-2.348,1.1A23.806,23.806,0,0,1,11.624,97.6c-.354.175-.9-.119-.754-.387l.3-.533c1.086-1.9,2.957-4.668,6.458-3.88,1.715.386,3.006,1.687,4.813.657C23.886,92.632,24.021,91.287,25.589,90.493Zm15.447-9.712c3.264-2.5,10.936-1.178,12.39,1.86a1.625,1.625,0,0,1-.8,2.018,4.431,4.431,0,0,1-3.771.324,9.053,9.053,0,0,1-2.322-1.705,11.341,11.341,0,0,0-4.388-1.7,5.057,5.057,0,0,0-1.13.558c-.175.116-.5-.043-.35-.18a4.254,4.254,0,0,1,.76-.523l-.141-.027h0C40.854,81.33,40.761,80.991,41.036,80.781ZM62.247,53.208c.732,0,1.584.459,1.49.993l-.028.148c-.211,1.018-.7,1.594-2.229,2.067a17.4,17.4,0,0,1-4.08.71,15.273,15.273,0,0,1-1.684.007l-.121.467a13.761,13.761,0,0,0-.507,2.822c-.078,1.765.91,3.22,1.97,4.8,2.035,3.028,2.263,6.05.048,9.073a2.587,2.587,0,0,1-1.982.758,2.726,2.726,0,0,1-1.982-.758,1.087,1.087,0,0,1-.037-1.495l.037-.049a4.764,4.764,0,0,0,.9-4.655c-.536-1.489-1.749-2.828-2.291-4.312-.883-2.418.057-4.817,1.894-6.892a7.845,7.845,0,0,1-3.525-1.464h0c-.326-.233-.148-.718.425-.689l.648.035a22.126,22.126,0,0,0,5.437-.134,11.833,11.833,0,0,0,2.616-.829l.177-.077A5.755,5.755,0,0,1,62.247,53.208Zm4.438-17.874c4.649-.176,8.618,1.869,10.547,4.591,2.1,2.956,1.216,6.347-.633,9.254l-.526.814a9.238,9.238,0,0,1-4.012,3.843c-2.116.85-3.945-.136-3.321-1.7a8.207,8.207,0,0,1,2.193-2.423,22.385,22.385,0,0,0,2.091-2.24,8.2,8.2,0,0,0,2.118-4.964c-.017-3.184-3.173-6.833-8.456-6.786C66.308,35.726,66.314,35.348,66.685,35.335ZM90.2,30.2c-.29-.147-.031-.473.293-.335,5.391,2.285,9.416,6.578,10.226,10.8a9.1,9.1,0,0,1-1.389,7,6.623,6.623,0,0,1-4.387,2.762c-1.892.312-3.842-.408-4.429-1.639-.228-.478.164-.977.756-1.238A9.465,9.465,0,0,0,95.633,44.2a8.7,8.7,0,0,0,1.326-4.684C96.987,35.742,94.731,32.494,90.2,30.2Zm65.851,1.633c-.25-.184.064-.456.395-.341,3.9,1.366,6.374,3.983,7.083,6.849a8.062,8.062,0,0,1-3.5,8.656c-1.839,1.146-5.133-.378-3.6-1.854a12.882,12.882,0,0,0,2.86-3.127A6.884,6.884,0,0,0,160,38.658,8.861,8.861,0,0,0,156.048,31.83ZM108.4,28.317a11.678,11.678,0,0,1,11.618,8.632,6.984,6.984,0,0,1-1.791,6.76l-.114.118c-1.595,1.617-4.494,3.478-7.618,2.713-1.322-.324-1.674-1.268-.786-1.984,1.359-1.1,3.46-1.543,4.738-2.714a5.573,5.573,0,0,0,1.821-4.554l-.011-.176c-.222-2.937-2.324-8.574-7.856-8.474C108.089,28.642,108.093,28.326,108.4,28.317Zm20.828-.842c6.441-.549,10.363,4.5,11.572,7.981a9.17,9.17,0,0,1-.046,6.76l-.072.154c-.787,1.611-3.107,4.372-6.137,3.548-.83-.226-1.677-.84-1.28-1.5.507-.847,1.24-1.066,2.216-1.608a4.774,4.774,0,0,0,1.663-1.606,8,8,0,0,0,1.118-5.1l-.019-.2c-.364-3.309-3.055-8.24-9.016-8.149C128.955,27.753,128.973,27.5,129.227,27.475Zm11.791-4.748c3.584-.91,6.521,1.375,8.582,3.005a22.64,22.64,0,0,1,6.247,6.787,7.92,7.92,0,0,1,.324,7.092,8.993,8.993,0,0,1-2.463,3.134l-.143.118a4.656,4.656,0,0,1-4.193,1.188c-.776-.138-1.1-.649-.969-1.138.287-1.044,1.094-1.315,2.14-2.043a6.763,6.763,0,0,0,2.066-2.266,6.332,6.332,0,0,0,.361-5.345,16.561,16.561,0,0,0-3.737-5.521l-.35-.367c-1.719-1.811-4.17-4.6-7.8-4.307C140.776,23.088,140.772,22.789,141.018,22.727Z" transform="translate(12.042 -10.356)" fill="#2f2e41" fill-rule="evenodd"/>
          </g>
          <g id="face_Concerned-Fear" data-name="face/Concerned-Fear" transform="translate(154.404 49.195)">
            <path id="_-Ink-3" data-name="ðŸ–-Ink" d="M52.58,48.547a20.613,20.613,0,0,1,9,1.575c2.822,1.105,5.838,2.53,6.552,4.663.666,1.988-.644,3.926-3.543,4.684-1.621.425-20.305,1.418-23.236,1.548s-5.728-.031-7.61-1.332c-4.863-3.362,1.89-7.721,6.206-9.33A36.683,36.683,0,0,1,52.58,48.547Zm-1,2.267c-3.262,0-8.607,1.591-8.607,2.365s15.577.006,15.911-.657S54.839,50.815,51.577,50.815Zm2.51-17.748c2.759,1.118,6.963,3.725,3.995,6.5-3.494,2.443-8.524-.358-11-1.625-2.3-.982-4.881,1.544-2.748,2.69,17.911,8.839,25.18-7.269,11.151-8.875C53.938,31.575,53.364,32.721,54.087,33.067ZM22.932,22.935c4.7-2.313,11.729-.533,12.887,3.086a1.742,1.742,0,0,1,1.338,1.388l.024.164h0c.114.781-.928,1.519-1.97,1.725a6.1,6.1,0,0,1-3.189-.22,1.6,1.6,0,0,1-1.217-1.908l.017-.057C31.1,26.261,30,25.435,28.9,25.1a5.369,5.369,0,0,0-3.726.363,4.876,4.876,0,0,0-2.541,2.474l-.034.1c-.267.824-.467,2.371.733,2.845.213.084.061.275-.159.25-2.608-.3-4.161-1.343-4.177-3.214C18.981,25.934,20.577,24.094,22.932,22.935ZM66.2,22.277c4.693-1.11,10.562,1.871,8.754,5.314-1.187,2.26-5.778,1.354-5.351-.911l.015-.069c.272-1.179-1.067-1.735-2.709-1.348-2.434.573-3.746,3.122-2.606,4.609.14.183-.251.337-.414.161l-.156-.167c-1.273-1.352-2.435-2.349-2.016-4.076C62.105,24.2,63.932,22.814,66.2,22.277Zm-9.518-8.194c-.012-.152.228-.255.434-.22a29.436,29.436,0,0,1,4.7,1.613,36.263,36.263,0,0,0,5.157,1.374,27.925,27.925,0,0,0,5.351.485c1.973-.011,3.9-.5,5.84-.464,2.91.061,4.43,2.881,1.565,3.851-4.172,1.411-10.36.386-14.419-.787C62.043,18.989,56.9,16.758,56.686,14.083Zm-21.193.645c1.522-1.306,4.6-1.385,5.953.154,1.4,1.59-.282,3.185-2.654,3.514A67.138,67.138,0,0,1,25.3,21.083l-.64.054c-4.115.334-9.309.516-13.027-.75-.364-.124-.254-.494.111-.563,2.1-.4,4.444-.4,6.6-.661,2.051-.249,4.085-.525,6.082-.929A50.013,50.013,0,0,0,35.493,14.728Z" transform="translate(-11.408 -13.738)" fill="#2f2e41" fill-rule="evenodd"/>
          </g>
        </g>
      </g>
    </g>
  </g>
</svg>
