<svg xmlns="http://www.w3.org/2000/svg" width="45" height="46" viewBox="0 0 45 46">
  <g id="target-svgrepo-com" transform="translate(0 -39.497)">
    <g id="Group_5" data-name="Group 5" transform="translate(0 39.497)">
      <g id="Group_4" data-name="Group 4">
        <path id="Path_199" data-name="Path 199" d="M34.218,62.671a1.243,1.243,0,0,0-.529,1.487,24.1,24.1,0,0,1,1.137,7.383c0,11.115-7.392,20.157-16.479,20.157S1.875,82.656,1.875,71.542,9.264,51.388,18.347,51.388a15.1,15.1,0,0,1,11.984,6.317.822.822,0,0,0,1.325.046,1.335,1.335,0,0,0,.038-1.622,18.807,18.807,0,0,0-5.955-5.142,15.449,15.449,0,0,0-7.392-1.894C8.23,49.094,0,59.164,0,71.542S8.23,93.993,18.347,93.993a16.737,16.737,0,0,0,12.978-6.574A25.051,25.051,0,0,0,36.7,71.542a26.838,26.838,0,0,0-1.267-8.223A.893.893,0,0,0,34.218,62.671Z" transform="translate(0 -47.993)" fill="#6c63ff"/>
        <path id="Path_200" data-name="Path 200" d="M79.35,112.414a1.335,1.335,0,0,0-.033-1.622,11.8,11.8,0,0,0-8.96-4.385c-7.15,0-12.966,7.121-12.966,15.873s5.817,15.874,12.966,15.874,12.981-7.121,12.981-15.874a18.991,18.991,0,0,0-.606-4.791.916.916,0,0,0-1.178-.744,1.214,1.214,0,0,0-.608,1.442,16.227,16.227,0,0,1,.517,4.094c0,7.488-4.982,13.58-11.106,13.58s-11.091-6.092-11.091-13.58S64.242,108.7,70.357,108.7a10.1,10.1,0,0,1,7.667,3.752A.822.822,0,0,0,79.35,112.414Z" transform="translate(-52.011 -98.732)" fill="#6c63ff"/>
        <path id="Path_201" data-name="Path 201" d="M119.216,162.608a5.447,5.447,0,0,1,3.615,1.469.829.829,0,0,0,1.315-.209,1.326,1.326,0,0,0-.171-1.609,7.18,7.18,0,0,0-.578-.489,6.866,6.866,0,0,0-4.181-1.457c-4.363,0-7.912,4.347-7.912,9.69s3.549,9.693,7.912,9.693,7.925-4.348,7.925-9.693a11.682,11.682,0,0,0-.073-1.3.991.991,0,0,0-1.055-.982,1.129,1.129,0,0,0-.8,1.291,8.923,8.923,0,0,1,.056,1c0,4.08-2.714,7.4-6.05,7.4s-6.037-3.319-6.037-7.4S115.887,162.608,119.216,162.608Z" transform="translate(-100.869 -146.455)" fill="#6c63ff"/>
        <path id="Path_202" data-name="Path 202" d="M196.051,48.693l-3.826-2.8-.458-5.369a1.164,1.164,0,0,0-.527-.915.793.793,0,0,0-.913.07l-3.683,2.9a1.225,1.225,0,0,0-.43.949l-.066,5.959L171.3,60.521a2.278,2.278,0,0,0-1.516-.6,3.248,3.248,0,1,0,2.6,3.182,3.873,3.873,0,0,0-.056-.656l14.911-11.081,4.273,2.261a.793.793,0,0,0,.372.094.817.817,0,0,0,.506-.181l3.692-2.895a1.231,1.231,0,0,0,.432-.984A1.215,1.215,0,0,0,196.051,48.693Zm-4.258,2.584-3.767-1.993.057-5.109,1.978-1.558.349,4.085a1.193,1.193,0,0,0,.451.865l2.93,2.143Z" transform="translate(-151.508 -39.497)" fill="#6c63ff"/>
      </g>
    </g>
  </g>
</svg>
