<svg xmlns="http://www.w3.org/2000/svg" width="45" height="46" viewBox="0 0 45 46">
  <path id="timer-svgrepo-com" d="M64.431,9.1l1.622-2.746L63.026,4.949,61.405,7.692a24.711,24.711,0,0,0-7.2-1.569V3.033h5.5V0H45.292V3.033h5.5v3.09a24.715,24.715,0,0,0-7.2,1.569L41.974,4.949,38.947,6.357,40.569,9.1C34.221,12.633,30,18.9,30,26.033,30,37.06,40.074,46,52.5,46S75,37.06,75,26.033C75,18.895,70.778,12.633,64.431,9.1Zm2.594,18.447H50.791V13.143h3.418V24.516H67.025Z" transform="translate(-30)" fill="#6c63ff"/>
</svg>
